<svg id="Art" xmlns="http://www.w3.org/2000/svg" viewBox="0 0 700 391.84"><defs><style>.cls-1{fill:#8965ab;}.cls-2,.cls-3{fill:#7f81bb;stroke:#fff;stroke-miterlimit:10;}.cls-2{stroke-width:0.5px;}.cls-4{fill:#404242;}.cls-5{fill:#fff;}.cls-6{fill:#a286c4;}</style></defs><title>LearningCenter_6284_Serverless vs. Containers_Masterfile(Img 1-2)_PartiallyApproved</title><polygon class="cls-1" points="665.11 390.13 0.27 391.85 0.27 326.79 700.27 311.29 665.11 390.13"/><polygon class="cls-2" points="-0.27 327.15 63.62 311.65 699.76 311.65 665.87 327.15 -0.27 327.15"/><polygon class="cls-3" points="665.11 390.13 699.76 380.14 699.76 310.65 665.11 326.29 665.11 390.13"/><path class="cls-4" d="M84.58,11.29A4.63,4.63,0,0,0,80.78,13a7.34,7.34,0,0,0-1.38,4.73,7.41,7.41,0,0,0,1.33,4.77,4.72,4.72,0,0,0,3.85,1.61,10.41,10.41,0,0,0,2.11-.21c.68-.15,1.39-.33,2.12-.56v2.4a12.81,12.81,0,0,1-4.57.76,7.32,7.32,0,0,1-5.78-2.28q-2-2.28-2-6.52a10.53,10.53,0,0,1,1-4.67A6.91,6.91,0,0,1,80.26,10a8.55,8.55,0,0,1,4.35-1.07A10.86,10.86,0,0,1,89.46,10l-1,2.33a16,16,0,0,0-1.84-.72A6.79,6.79,0,0,0,84.58,11.29Z"/><path class="cls-4" d="M102.71,19.76a7.11,7.11,0,0,1-1.63,5,5.84,5.84,0,0,1-4.54,1.78,6.18,6.18,0,0,1-3.21-.82,5.37,5.37,0,0,1-2.14-2.35,8,8,0,0,1-.75-3.57,7.06,7.06,0,0,1,1.61-4.92,5.87,5.87,0,0,1,4.56-1.77,5.75,5.75,0,0,1,4.46,1.81A7,7,0,0,1,102.71,19.76Zm-9.44,0c0,3,1.11,4.49,3.32,4.49s3.28-1.49,3.28-4.49-1.1-4.44-3.3-4.44a2.84,2.84,0,0,0-2.52,1.15A5.86,5.86,0,0,0,93.27,19.76Z"/><path class="cls-4" d="M116.5,26.27h-2.76v-8a3.44,3.44,0,0,0-.61-2.24,2.33,2.33,0,0,0-1.91-.74,3.07,3.07,0,0,0-2.56,1,5.7,5.7,0,0,0-.81,3.46v6.46H105.1v-13h2.16l.38,1.7h.14a3.78,3.78,0,0,1,1.67-1.43,5.51,5.51,0,0,1,2.39-.51c3.11,0,4.66,1.59,4.66,4.75Z"/><path class="cls-4" d="M124.33,24.28a6.7,6.7,0,0,0,2-.32V26a5,5,0,0,1-1.17.34,8.13,8.13,0,0,1-1.5.13q-3.92,0-3.91-4.12v-7H118V14.17l1.9-1,.94-2.75h1.69v2.89h3.7v2.08h-3.7v6.94a1.93,1.93,0,0,0,.5,1.47A1.81,1.81,0,0,0,124.33,24.28Z"/><path class="cls-4" d="M136.65,26.27l-.55-1.81H136a5.35,5.35,0,0,1-1.88,1.62,6.11,6.11,0,0,1-2.44.42,4.11,4.11,0,0,1-3-1,3.85,3.85,0,0,1-1.08-2.92,3.43,3.43,0,0,1,1.49-3,8.6,8.6,0,0,1,4.54-1.11l2.24-.07v-.69a2.66,2.66,0,0,0-.58-1.86,2.38,2.38,0,0,0-1.8-.62,6.06,6.06,0,0,0-1.91.3,12.86,12.86,0,0,0-1.76.69l-.89-2a9.32,9.32,0,0,1,2.31-.84,10.63,10.63,0,0,1,2.36-.29,5.62,5.62,0,0,1,3.74,1.08,4.23,4.23,0,0,1,1.26,3.39v8.73Zm-4.1-1.88a3.42,3.42,0,0,0,2.4-.83,3,3,0,0,0,.91-2.35V20.08l-1.66.07a5.79,5.79,0,0,0-2.83.65,2,2,0,0,0-.89,1.78,1.75,1.75,0,0,0,.52,1.34A2.2,2.2,0,0,0,132.55,24.39Z"/><path class="cls-4" d="M141.45,9.87a1.5,1.5,0,0,1,.4-1.13,1.57,1.57,0,0,1,1.16-.4,1.53,1.53,0,0,1,1.13.4,1.5,1.5,0,0,1,.4,1.13,1.5,1.5,0,0,1-.4,1.11,1.54,1.54,0,0,1-1.13.41,1.58,1.58,0,0,1-1.16-.41A1.5,1.5,0,0,1,141.45,9.87Zm2.91,16.4h-2.75v-13h2.75Z"/><path class="cls-4" d="M158.84,26.27h-2.76v-8a3.44,3.44,0,0,0-.61-2.24,2.33,2.33,0,0,0-1.91-.74,3.07,3.07,0,0,0-2.56,1,5.7,5.7,0,0,0-.81,3.46v6.46h-2.75v-13h2.16L150,15h.14a3.78,3.78,0,0,1,1.67-1.43,5.51,5.51,0,0,1,2.39-.51c3.11,0,4.66,1.59,4.66,4.75Z"/><path class="cls-4" d="M167.59,26.5a6.24,6.24,0,0,1-4.73-1.76,6.7,6.7,0,0,1-1.71-4.86,7.36,7.36,0,0,1,1.58-5,5.49,5.49,0,0,1,4.35-1.82,5.35,5.35,0,0,1,4.06,1.56,6,6,0,0,1,1.49,4.29v1.49H164a4.27,4.27,0,0,0,1,2.9,3.53,3.53,0,0,0,2.71,1,10.26,10.26,0,0,0,2.13-.21,12.16,12.16,0,0,0,2.13-.72v2.23a8.29,8.29,0,0,1-2,.68A11.91,11.91,0,0,1,167.59,26.5Zm-.51-11.34A2.79,2.79,0,0,0,165,16a4,4,0,0,0-.94,2.43h5.88a3.6,3.6,0,0,0-.77-2.43A2.63,2.63,0,0,0,167.08,15.16Z"/><path class="cls-4" d="M181.64,13.07a6.44,6.44,0,0,1,1.37.12l-.27,2.57a4.83,4.83,0,0,0-1.21-.14,3.54,3.54,0,0,0-2.68,1.07,3.89,3.89,0,0,0-1,2.81v6.77h-2.75v-13h2.15l.37,2.28h.14a5.23,5.23,0,0,1,1.68-1.84A4,4,0,0,1,181.64,13.07Z"/><path class="cls-4" d="M197.62,26.27h-2.75V15.21c0-1.32,0-2.37.09-3.14-.18.18-.4.39-.66.62l-2.63,2.15-1.38-1.74,5-4h2.29Z"/><path class="cls-4" d="M315.74,11.29a4.62,4.62,0,0,0-3.8,1.71,7.34,7.34,0,0,0-1.38,4.73,7.35,7.35,0,0,0,1.33,4.77,4.72,4.72,0,0,0,3.85,1.61,10.41,10.41,0,0,0,2.11-.21c.68-.15,1.38-.33,2.12-.56v2.4a12.81,12.81,0,0,1-4.57.76,7.32,7.32,0,0,1-5.78-2.28q-2-2.28-2-6.52a10.53,10.53,0,0,1,1-4.67A7,7,0,0,1,311.41,10a8.6,8.6,0,0,1,4.35-1.07,10.83,10.83,0,0,1,4.85,1.1l-1,2.33a16,16,0,0,0-1.84-.72A6.79,6.79,0,0,0,315.74,11.29Z"/><path class="cls-4" d="M333.86,19.76a7.06,7.06,0,0,1-1.63,5,5.8,5.8,0,0,1-4.53,1.78,6.18,6.18,0,0,1-3.21-.82,5.39,5.39,0,0,1-2.15-2.35,8,8,0,0,1-.75-3.57,7,7,0,0,1,1.62-4.92,5.87,5.87,0,0,1,4.56-1.77,5.73,5.73,0,0,1,4.45,1.81A7,7,0,0,1,333.86,19.76Zm-9.43,0c0,3,1.1,4.49,3.32,4.49S331,22.76,331,19.76s-1.1-4.44-3.31-4.44a2.83,2.83,0,0,0-2.51,1.15A5.86,5.86,0,0,0,324.43,19.76Z"/><path class="cls-4" d="M347.66,26.27h-2.77v-8a3.5,3.5,0,0,0-.6-2.24,2.34,2.34,0,0,0-1.92-.74,3.06,3.06,0,0,0-2.55,1,5.7,5.7,0,0,0-.81,3.46v6.46h-2.75v-13h2.15l.39,1.7h.14a3.81,3.81,0,0,1,1.66-1.43,5.55,5.55,0,0,1,2.4-.51c3.1,0,4.66,1.59,4.66,4.75Z"/><path class="cls-4" d="M355.49,24.28a6.7,6.7,0,0,0,2-.32V26a5.11,5.11,0,0,1-1.18.34,8,8,0,0,1-1.49.13q-3.91,0-3.91-4.12v-7h-1.77V14.17l1.9-1,.93-2.75h1.7v2.89h3.69v2.08h-3.69v6.94a1.93,1.93,0,0,0,.5,1.47A1.81,1.81,0,0,0,355.49,24.28Z"/><path class="cls-4" d="M367.8,26.27l-.55-1.81h-.09a5.29,5.29,0,0,1-1.89,1.62,6,6,0,0,1-2.43.42,4.13,4.13,0,0,1-3-1,3.88,3.88,0,0,1-1.07-2.92,3.43,3.43,0,0,1,1.49-3,8.53,8.53,0,0,1,4.53-1.11l2.24-.07v-.69a2.61,2.61,0,0,0-.58-1.86,2.35,2.35,0,0,0-1.8-.62,6.11,6.11,0,0,0-1.91.3,12.73,12.73,0,0,0-1.75.69l-.89-2a9.39,9.39,0,0,1,2.3-.84,10.79,10.79,0,0,1,2.37-.29,5.59,5.59,0,0,1,3.73,1.08,4.23,4.23,0,0,1,1.26,3.39v8.73Zm-4.1-1.88a3.44,3.44,0,0,0,2.41-.83,3,3,0,0,0,.91-2.35V20.08l-1.66.07a5.79,5.79,0,0,0-2.83.65,2,2,0,0,0-.89,1.78,1.71,1.71,0,0,0,.52,1.34A2.18,2.18,0,0,0,363.7,24.39Z"/><path class="cls-4" d="M372.6,9.87A1.5,1.5,0,0,1,373,8.74a1.55,1.55,0,0,1,1.15-.4,1.53,1.53,0,1,1,0,3.05A1.55,1.55,0,0,1,373,11,1.5,1.5,0,0,1,372.6,9.87Zm2.92,16.4h-2.75v-13h2.75Z"/><path class="cls-4" d="M390,26.27h-2.77v-8a3.5,3.5,0,0,0-.6-2.24,2.34,2.34,0,0,0-1.92-.74,3.06,3.06,0,0,0-2.55,1,5.7,5.7,0,0,0-.81,3.46v6.46H378.6v-13h2.15l.39,1.7h.14A3.78,3.78,0,0,1,383,13.58a5.47,5.47,0,0,1,2.39-.51c3.11,0,4.66,1.59,4.66,4.75Z"/><path class="cls-4" d="M398.74,26.5A6.27,6.27,0,0,1,394,24.74a6.74,6.74,0,0,1-1.7-4.86,7.36,7.36,0,0,1,1.58-5,5.49,5.49,0,0,1,4.35-1.82,5.33,5.33,0,0,1,4.05,1.56,5.93,5.93,0,0,1,1.49,4.29v1.49h-8.63a4.17,4.17,0,0,0,1,2.9,3.52,3.52,0,0,0,2.7,1,10.29,10.29,0,0,0,2.14-.21,12.16,12.16,0,0,0,2.13-.72v2.23a8.29,8.29,0,0,1-2,.68A11.94,11.94,0,0,1,398.74,26.5Zm-.5-11.34a2.76,2.76,0,0,0-2.1.83,4,4,0,0,0-.95,2.43h5.89A3.61,3.61,0,0,0,400.3,16,2.62,2.62,0,0,0,398.24,15.16Z"/><path class="cls-4" d="M412.8,13.07a6.5,6.5,0,0,1,1.37.12l-.27,2.57a4.91,4.91,0,0,0-1.22-.14A3.57,3.57,0,0,0,410,16.69a3.93,3.93,0,0,0-1,2.81v6.77h-2.76v-13h2.16l.36,2.28h.14a5.26,5.26,0,0,1,1.69-1.84A4,4,0,0,1,412.8,13.07Z"/><path class="cls-4" d="M432.31,26.27H420.69V24.18l4.42-4.44a36.34,36.34,0,0,0,2.6-2.84,7,7,0,0,0,.93-1.58,4.35,4.35,0,0,0,.29-1.58,2.41,2.41,0,0,0-.7-1.83,2.66,2.66,0,0,0-1.92-.66,5.22,5.22,0,0,0-1.91.36,8.86,8.86,0,0,0-2.12,1.31l-1.49-1.82a9.84,9.84,0,0,1,2.77-1.71,8.3,8.3,0,0,1,2.88-.5,5.66,5.66,0,0,1,3.83,1.25,4.21,4.21,0,0,1,1.44,3.36,5.86,5.86,0,0,1-.42,2.2A8.94,8.94,0,0,1,430,17.85a28.61,28.61,0,0,1-2.87,3l-3,2.89v.11h8.14Z"/><path class="cls-4" d="M545.66,11.29a4.62,4.62,0,0,0-3.8,1.71,7.34,7.34,0,0,0-1.38,4.73,7.35,7.35,0,0,0,1.33,4.77,4.71,4.71,0,0,0,3.85,1.61,10.49,10.49,0,0,0,2.11-.21c.68-.15,1.38-.33,2.12-.56v2.4a12.85,12.85,0,0,1-4.57.76,7.3,7.3,0,0,1-5.78-2.28,9.55,9.55,0,0,1-2-6.52,10.53,10.53,0,0,1,1-4.67A7,7,0,0,1,541.33,10a8.6,8.6,0,0,1,4.35-1.07,10.83,10.83,0,0,1,4.85,1.1l-1,2.33a15.84,15.84,0,0,0-1.83-.72A6.79,6.79,0,0,0,545.66,11.29Z"/><path class="cls-4" d="M563.78,19.76a7.06,7.06,0,0,1-1.63,5,5.82,5.82,0,0,1-4.53,1.78,6.18,6.18,0,0,1-3.21-.82,5.39,5.39,0,0,1-2.15-2.35,8,8,0,0,1-.75-3.57,7,7,0,0,1,1.62-4.92,5.87,5.87,0,0,1,4.56-1.77,5.73,5.73,0,0,1,4.45,1.81A7,7,0,0,1,563.78,19.76Zm-9.43,0c0,3,1.1,4.49,3.31,4.49S561,22.76,561,19.76s-1.11-4.44-3.31-4.44a2.82,2.82,0,0,0-2.51,1.15A5.86,5.86,0,0,0,554.35,19.76Z"/><path class="cls-4" d="M577.58,26.27h-2.77v-8a3.5,3.5,0,0,0-.6-2.24,2.34,2.34,0,0,0-1.92-.74,3.06,3.06,0,0,0-2.55,1,5.7,5.7,0,0,0-.81,3.46v6.46h-2.76v-13h2.16l.39,1.7h.14a3.76,3.76,0,0,1,1.66-1.43,5.54,5.54,0,0,1,2.39-.51c3.11,0,4.67,1.59,4.67,4.75Z"/><path class="cls-4" d="M585.4,24.28a6.71,6.71,0,0,0,2-.32V26a5.11,5.11,0,0,1-1.18.34,8.1,8.1,0,0,1-1.49.13q-3.91,0-3.92-4.12v-7h-1.77V14.17l1.9-1,.94-2.75h1.7v2.89h3.69v2.08H583.6v6.94a1.93,1.93,0,0,0,.5,1.47A1.8,1.8,0,0,0,585.4,24.28Z"/><path class="cls-4" d="M597.72,26.27l-.55-1.81h-.09a5.37,5.37,0,0,1-1.89,1.62,6,6,0,0,1-2.44.42,4.12,4.12,0,0,1-3-1,3.88,3.88,0,0,1-1.07-2.92,3.43,3.43,0,0,1,1.49-3,8.53,8.53,0,0,1,4.53-1.11l2.24-.07v-.69a2.61,2.61,0,0,0-.58-1.86,2.35,2.35,0,0,0-1.8-.62,6.11,6.11,0,0,0-1.91.3,13.39,13.39,0,0,0-1.76.69l-.89-2a9.62,9.62,0,0,1,2.31-.84,10.79,10.79,0,0,1,2.37-.29,5.59,5.59,0,0,1,3.73,1.08,4.23,4.23,0,0,1,1.26,3.39v8.73Zm-4.1-1.88a3.46,3.46,0,0,0,2.41-.83,3,3,0,0,0,.91-2.35V20.08l-1.67.07a5.82,5.82,0,0,0-2.83.65,2,2,0,0,0-.88,1.78,1.71,1.71,0,0,0,.52,1.34A2.17,2.17,0,0,0,593.62,24.39Z"/><path class="cls-4" d="M602.52,9.87a1.5,1.5,0,0,1,.41-1.13,1.55,1.55,0,0,1,1.15-.4,1.53,1.53,0,1,1,0,3.05,1.55,1.55,0,0,1-1.15-.41A1.5,1.5,0,0,1,602.52,9.87Zm2.92,16.4h-2.75v-13h2.75Z"/><path class="cls-4" d="M619.92,26.27h-2.77v-8a3.5,3.5,0,0,0-.6-2.24,2.34,2.34,0,0,0-1.92-.74,3.06,3.06,0,0,0-2.55,1,5.7,5.7,0,0,0-.81,3.46v6.46h-2.75v-13h2.15l.39,1.7h.14a3.76,3.76,0,0,1,1.66-1.43,5.54,5.54,0,0,1,2.39-.51c3.11,0,4.67,1.59,4.67,4.75Z"/><path class="cls-4" d="M628.66,26.5a6.27,6.27,0,0,1-4.73-1.76,6.74,6.74,0,0,1-1.7-4.86,7.36,7.36,0,0,1,1.58-5,5.47,5.47,0,0,1,4.35-1.82,5.33,5.33,0,0,1,4.05,1.56,5.93,5.93,0,0,1,1.49,4.29v1.49h-8.64a4.27,4.27,0,0,0,1,2.9,3.55,3.55,0,0,0,2.71,1,10.29,10.29,0,0,0,2.14-.21,12.16,12.16,0,0,0,2.13-.72v2.23a8.44,8.44,0,0,1-2,.68A12,12,0,0,1,628.66,26.5Zm-.5-11.34a2.79,2.79,0,0,0-2.11.83,4,4,0,0,0-.94,2.43H631a3.55,3.55,0,0,0-.77-2.43A2.62,2.62,0,0,0,628.16,15.16Z"/><path class="cls-4" d="M642.72,13.07a6.5,6.5,0,0,1,1.37.12l-.27,2.57a4.91,4.91,0,0,0-1.22-.14,3.57,3.57,0,0,0-2.68,1.07,3.93,3.93,0,0,0-1,2.81v6.77h-2.76v-13h2.16l.36,2.28h.14a5.17,5.17,0,0,1,1.69-1.84A4,4,0,0,1,642.72,13.07Z"/><path class="cls-4" d="M661.58,13.07a4,4,0,0,1-1,2.72A4.77,4.77,0,0,1,658,17.25v.09a5.16,5.16,0,0,1,3.09,1.28,3.67,3.67,0,0,1,1,2.73,4.52,4.52,0,0,1-1.74,3.81,8,8,0,0,1-5,1.34,11.34,11.34,0,0,1-4.81-.92V23.13a11.34,11.34,0,0,0,2.31.83,9.87,9.87,0,0,0,2.35.29,4.87,4.87,0,0,0,3-.74,2.65,2.65,0,0,0,1-2.28,2.2,2.2,0,0,0-1.09-2,7,7,0,0,0-3.42-.64h-1.49V16.33h1.51q4.09,0,4.1-2.83a2.09,2.09,0,0,0-.71-1.7,3.22,3.22,0,0,0-2.11-.6,6.52,6.52,0,0,0-1.88.27A8.87,8.87,0,0,0,652,12.55l-1.35-1.93a9,9,0,0,1,5.47-1.73,6.54,6.54,0,0,1,4,1.11A3.66,3.66,0,0,1,661.58,13.07Z"/><path class="cls-5" d="M260.32,367.89h-3.75V357.6H246v10.29H242.3V345.05H246v9.34h10.54v-9.34h3.75Z"/><path class="cls-5" d="M280.2,359.22a9.41,9.41,0,0,1-2.17,6.61,7.78,7.78,0,0,1-6,2.38,8.29,8.29,0,0,1-4.28-1.1,7.21,7.21,0,0,1-2.86-3.14,10.61,10.61,0,0,1-1-4.75,9.35,9.35,0,0,1,2.16-6.56,7.81,7.81,0,0,1,6.08-2.36,7.63,7.63,0,0,1,5.93,2.41A9.32,9.32,0,0,1,280.2,359.22Zm-12.58,0c0,4,1.48,6,4.42,6s4.38-2,4.38-6S275,353.3,272,353.3a3.75,3.75,0,0,0-3.35,1.53A7.82,7.82,0,0,0,267.62,359.22Z"/><path class="cls-5" d="M295,363a4.55,4.55,0,0,1-1.84,3.89,8.85,8.85,0,0,1-5.29,1.35,12.4,12.4,0,0,1-5.54-1V364a13.55,13.55,0,0,0,5.67,1.4q3.39,0,3.39-2a1.65,1.65,0,0,0-.37-1.1,4.51,4.51,0,0,0-1.24-.9,20.53,20.53,0,0,0-2.39-1.06,11.17,11.17,0,0,1-4-2.32,4.29,4.29,0,0,1-1.05-3,3.92,3.92,0,0,1,1.79-3.44,8.45,8.45,0,0,1,4.86-1.23,13.7,13.7,0,0,1,5.77,1.24l-1.19,2.76a12.83,12.83,0,0,0-4.7-1.16c-1.94,0-2.91.56-2.91,1.66a1.67,1.67,0,0,0,.76,1.38,16.69,16.69,0,0,0,3.3,1.54,15.17,15.17,0,0,1,3.11,1.52,4.55,4.55,0,0,1,1.44,1.58A4.64,4.64,0,0,1,295,363Z"/><path class="cls-5" d="M304.83,365.24a9,9,0,0,0,2.69-.42v2.76A7.3,7.3,0,0,1,306,368a10.94,10.94,0,0,1-2,.18c-3.48,0-5.22-1.84-5.22-5.5v-9.32h-2.35v-1.62l2.53-1.34,1.25-3.66h2.26v3.84h4.92v2.78h-4.92v9.25a2.6,2.6,0,0,0,.67,2A2.42,2.42,0,0,0,304.83,365.24Z"/><path class="cls-5" d="M336.09,367.89h-3.75V357.6H321.81v10.29h-3.74V345.05h3.74v9.34h10.53v-9.34h3.75Z"/><path class="cls-5" d="M351.31,367.89l-.73-2.4h-.12a7.2,7.2,0,0,1-2.52,2.15,8,8,0,0,1-3.25.57,5.5,5.5,0,0,1-4-1.38,5.14,5.14,0,0,1-1.43-3.89,4.58,4.58,0,0,1,2-4,11.38,11.38,0,0,1,6.05-1.48l3-.1v-.92a3.54,3.54,0,0,0-.77-2.48,3.2,3.2,0,0,0-2.4-.82,8.29,8.29,0,0,0-2.55.39,18.38,18.38,0,0,0-2.34.93l-1.19-2.63a12.94,12.94,0,0,1,3.08-1.12,14.38,14.38,0,0,1,3.15-.38,7.47,7.47,0,0,1,5,1.44,5.62,5.62,0,0,1,1.68,4.51v11.64Zm-5.46-2.5a4.57,4.57,0,0,0,3.21-1.11,4.09,4.09,0,0,0,1.21-3.14v-1.5l-2.22.1a7.48,7.48,0,0,0-3.77.87A2.61,2.61,0,0,0,343.1,363a2.34,2.34,0,0,0,.68,1.79A3,3,0,0,0,345.85,365.39Z"/><path class="cls-5" d="M366.63,350.3a8.44,8.44,0,0,1,1.83.16l-.36,3.42a6.65,6.65,0,0,0-1.62-.19,4.69,4.69,0,0,0-3.57,1.44,5.2,5.2,0,0,0-1.37,3.73v9h-3.67V350.61h2.87l.49,3.05h.19a6.8,6.8,0,0,1,2.24-2.45A5.27,5.27,0,0,1,366.63,350.3Z"/><path class="cls-5" d="M376.39,368.21a6,6,0,0,1-5.05-2.35,12.83,12.83,0,0,1,0-13.19,6.07,6.07,0,0,1,5.08-2.37,6,6,0,0,1,5.19,2.52h.19a21.68,21.68,0,0,1-.27-2.94v-6.3h3.69v24.31h-2.88l-.64-2.26h-.17A5.87,5.87,0,0,1,376.39,368.21Zm1-3a4,4,0,0,0,3.3-1.28,6.65,6.65,0,0,0,1.06-4.13v-.51c0-2.18-.35-3.73-1.06-4.64a3.94,3.94,0,0,0-3.33-1.38,3.37,3.37,0,0,0-3,1.57,8,8,0,0,0-1.05,4.48,7.81,7.81,0,0,0,1,4.38A3.4,3.4,0,0,0,377.37,365.24Z"/><path class="cls-5" d="M403.78,367.89l-2.23-8.06c-.27-.85-.76-2.84-1.47-5.95h-.14c-.61,2.81-1.09,4.81-1.44,6l-2.3,8h-4.06l-4.84-17.28h3.75l2.2,8.52c.5,2.1.85,3.91,1.06,5.41h.1c.1-.76.26-1.64.47-2.62s.4-1.72.56-2.21l2.62-9.1h4l2.55,9.1c.16.51.35,1.29.59,2.34a18.33,18.33,0,0,1,.41,2.45h.13a46.94,46.94,0,0,1,1.09-5.37l2.23-8.52h3.69l-4.87,17.28Z"/><path class="cls-5" d="M425.26,367.89l-.73-2.4h-.13a7.1,7.1,0,0,1-2.51,2.15,8,8,0,0,1-3.25.57,5.49,5.49,0,0,1-4-1.38,5.14,5.14,0,0,1-1.43-3.89,4.56,4.56,0,0,1,2-4,11.34,11.34,0,0,1,6-1.48l3-.1v-.92a3.5,3.5,0,0,0-.78-2.48,3.16,3.16,0,0,0-2.39-.82,8.29,8.29,0,0,0-2.55.39,18.53,18.53,0,0,0-2.35.93L415,351.8a12.78,12.78,0,0,1,3.08-1.12,14.38,14.38,0,0,1,3.15-.38,7.47,7.47,0,0,1,5,1.44,5.62,5.62,0,0,1,1.68,4.51v11.64Zm-5.47-2.5a4.54,4.54,0,0,0,3.21-1.11,4.06,4.06,0,0,0,1.22-3.14v-1.5l-2.22.1a7.55,7.55,0,0,0-3.78.87A2.63,2.63,0,0,0,417,363a2.31,2.31,0,0,0,.69,1.79A3,3,0,0,0,419.79,365.39Z"/><path class="cls-5" d="M440.58,350.3a8.44,8.44,0,0,1,1.83.16l-.36,3.42a6.65,6.65,0,0,0-1.62-.19,4.69,4.69,0,0,0-3.57,1.44,5.16,5.16,0,0,0-1.37,3.73v9h-3.67V350.61h2.87l.49,3.05h.18a6.82,6.82,0,0,1,2.25-2.45A5.27,5.27,0,0,1,440.58,350.3Z"/><path class="cls-5" d="M452,368.21a8.38,8.38,0,0,1-6.3-2.35,8.92,8.92,0,0,1-2.28-6.48,9.85,9.85,0,0,1,2.11-6.66,7.31,7.31,0,0,1,5.8-2.42,7.13,7.13,0,0,1,5.41,2.08,7.94,7.94,0,0,1,2,5.72v2H447.18a5.64,5.64,0,0,0,1.36,3.87,4.71,4.71,0,0,0,3.6,1.35A12.89,12.89,0,0,0,455,365a14.56,14.56,0,0,0,2.83-1v3a11.57,11.57,0,0,1-2.72.9A16.33,16.33,0,0,1,452,368.21Zm-.67-15.13a3.67,3.67,0,0,0-2.8,1.11,5.23,5.23,0,0,0-1.26,3.24h7.84a4.79,4.79,0,0,0-1-3.25A3.54,3.54,0,0,0,451.3,353.08Z"/><polygon class="cls-6" points="665.11 326.71 0.27 326.43 0.27 261.37 700.27 245.88 665.11 326.71"/><polygon class="cls-2" points="-0.27 260.73 63.62 245.23 699.76 245.23 665.87 260.73 -0.27 260.73"/><polygon class="cls-3" points="665.11 326.71 699.76 310.73 699.76 245.23 665.11 259.87 665.11 326.71"/><path class="cls-5" d="M203,305.4H199.2V295.1H188.67v10.3h-3.74V282.56h3.74v9.34H199.2v-9.34H203Z"/><path class="cls-5" d="M222.83,296.73a9.44,9.44,0,0,1-2.17,6.61,7.78,7.78,0,0,1-6,2.37,8.29,8.29,0,0,1-4.29-1.09,7.27,7.27,0,0,1-2.86-3.14,10.81,10.81,0,0,1-1-4.75,9.35,9.35,0,0,1,2.16-6.56,7.79,7.79,0,0,1,6.08-2.36,7.62,7.62,0,0,1,5.94,2.41A9.37,9.37,0,0,1,222.83,296.73Zm-12.57,0q0,6,4.42,6t4.37-6q0-5.93-4.4-5.92a3.74,3.74,0,0,0-3.35,1.53A7.72,7.72,0,0,0,210.26,296.73Z"/><path class="cls-5" d="M237.59,300.48a4.51,4.51,0,0,1-1.84,3.88,8.84,8.84,0,0,1-5.28,1.35,12.63,12.63,0,0,1-5.55-1v-3.18a13.58,13.58,0,0,0,5.67,1.41c2.26,0,3.39-.68,3.39-2a1.62,1.62,0,0,0-.37-1.09,4.55,4.55,0,0,0-1.24-.91,22.39,22.39,0,0,0-2.39-1.06,11.13,11.13,0,0,1-4-2.31,4.29,4.29,0,0,1-1.05-3,4,4,0,0,1,1.79-3.45,8.46,8.46,0,0,1,4.87-1.22,13.8,13.8,0,0,1,5.76,1.23l-1.19,2.77a12.83,12.83,0,0,0-4.7-1.16c-1.94,0-2.9.55-2.9,1.66a1.66,1.66,0,0,0,.75,1.37,16.72,16.72,0,0,0,3.31,1.55,15.81,15.81,0,0,1,3.11,1.51,4.55,4.55,0,0,1,1.43,1.59A4.49,4.49,0,0,1,237.59,300.48Z"/><path class="cls-5" d="M247.46,302.74a9,9,0,0,0,2.69-.42v2.77a7.35,7.35,0,0,1-1.57.44,10.83,10.83,0,0,1-2,.18q-5.22,0-5.22-5.5V290.9H239v-1.62l2.53-1.35,1.25-3.65h2.27v3.84H250v2.78h-4.92v9.25a2.59,2.59,0,0,0,.66,2A2.42,2.42,0,0,0,247.46,302.74Z"/><path class="cls-5" d="M281,294q0,5.58-2.79,8.67t-7.9,3.09q-5.18,0-7.95-3.07t-2.77-8.72c0-3.78.93-6.67,2.79-8.69s4.51-3,8-3,6,1,7.88,3.08S281,290.22,281,294Zm-17.44,0q0,4.21,1.7,6.4a6.93,6.93,0,0,0,10.07,0Q277,298.21,277,294c0-2.81-.56-4.93-1.68-6.38a6,6,0,0,0-5-2.17,6.08,6.08,0,0,0-5.07,2.17C264.12,289,263.55,291.14,263.55,294Z"/><path class="cls-5" d="M293.28,305.71a6,6,0,0,1-5.09-2.36H288c.14,1.46.22,2.35.22,2.66v7.08h-3.68v-25h3c.09.32.26,1.09.52,2.31h.19a5.73,5.73,0,0,1,5.15-2.62,6,6,0,0,1,5,2.34,12.83,12.83,0,0,1,0,13.19A6,6,0,0,1,293.28,305.71Zm-.89-14.9a3.82,3.82,0,0,0-3.2,1.28,6.65,6.65,0,0,0-1,4.09v.55a8.06,8.06,0,0,0,1,4.57,3.71,3.71,0,0,0,3.26,1.41,3.32,3.32,0,0,0,2.94-1.56,8,8,0,0,0,1-4.45,7.8,7.8,0,0,0-1-4.4A3.42,3.42,0,0,0,292.39,290.81Z"/><path class="cls-5" d="M311.09,305.71a8.37,8.37,0,0,1-6.31-2.35,9,9,0,0,1-2.27-6.48,9.76,9.76,0,0,1,2.11-6.65,7.28,7.28,0,0,1,5.8-2.42,7.12,7.12,0,0,1,5.4,2.07,7.94,7.94,0,0,1,2,5.72v2H306.29a5.71,5.71,0,0,0,1.36,3.87,4.75,4.75,0,0,0,3.61,1.35,13.49,13.49,0,0,0,2.85-.29,16.12,16.12,0,0,0,2.84-1v3a11.31,11.31,0,0,1-2.72.91A17.31,17.31,0,0,1,311.09,305.71Zm-.67-15.12a3.71,3.71,0,0,0-2.81,1.11,5.27,5.27,0,0,0-1.25,3.23h7.84a4.79,4.79,0,0,0-1-3.24A3.56,3.56,0,0,0,310.42,290.59Z"/><path class="cls-5" d="M329.74,287.81a9.22,9.22,0,0,1,1.83.15l-.36,3.42a7.18,7.18,0,0,0-1.62-.18,4.72,4.72,0,0,0-3.57,1.43,5.22,5.22,0,0,0-1.37,3.74v9H321V288.12h2.87l.49,3.05h.19a6.83,6.83,0,0,1,2.24-2.46A5.34,5.34,0,0,1,329.74,287.81Z"/><path class="cls-5" d="M344.22,305.4l-.74-2.41h-.12a6.93,6.93,0,0,1-2.52,2.15,7.92,7.92,0,0,1-3.25.57,5.5,5.5,0,0,1-4-1.37,5.12,5.12,0,0,1-1.43-3.89,4.56,4.56,0,0,1,2-4,11.46,11.46,0,0,1,6.05-1.49l3-.09v-.92a3.52,3.52,0,0,0-.77-2.48,3.16,3.16,0,0,0-2.4-.82,8.34,8.34,0,0,0-2.55.39,20,20,0,0,0-2.34.92L334,289.31a13.1,13.1,0,0,1,3.08-1.12,13.88,13.88,0,0,1,3.16-.38,7.52,7.52,0,0,1,5,1.43,5.64,5.64,0,0,1,1.68,4.52V305.4Zm-5.47-2.5a4.53,4.53,0,0,0,3.21-1.12,4,4,0,0,0,1.21-3.13v-1.5l-2.22.09a7.7,7.7,0,0,0-3.77.87,2.64,2.64,0,0,0-1.18,2.37,2.31,2.31,0,0,0,.69,1.79A2.94,2.94,0,0,0,338.75,302.9Z"/><path class="cls-5" d="M357.23,302.74a8.93,8.93,0,0,0,2.69-.42v2.77a7.18,7.18,0,0,1-1.57.44,10.75,10.75,0,0,1-2,.18q-5.22,0-5.22-5.5V290.9h-2.36v-1.62l2.53-1.35,1.25-3.65h2.27v3.84h4.92v2.78h-4.92v9.25a2.59,2.59,0,0,0,.66,2A2.43,2.43,0,0,0,357.23,302.74Z"/><path class="cls-5" d="M362,283.54a2,2,0,0,1,.54-1.51,2.09,2.09,0,0,1,1.54-.54,2,2,0,0,1,1.51.54,2.34,2.34,0,0,1,0,3,2,2,0,0,1-1.51.54,2.09,2.09,0,0,1-1.54-.54A2,2,0,0,1,362,283.54Zm3.9,21.86H362.2V288.12h3.68Z"/><path class="cls-5" d="M385.09,305.4H381.4V294.78a4.7,4.7,0,0,0-.8-3,3.11,3.11,0,0,0-2.56-1,4.07,4.07,0,0,0-3.4,1.37c-.72.92-1.08,2.45-1.08,4.61v8.61h-3.67V288.12h2.87l.52,2.26h.18a5.18,5.18,0,0,1,2.22-1.9,7.41,7.41,0,0,1,3.19-.67q6.22,0,6.22,6.32Z"/><path class="cls-5" d="M403.7,288.12v2l-2.95.55a4.86,4.86,0,0,1,.67,1.35,5.47,5.47,0,0,1,.26,1.68,5.19,5.19,0,0,1-1.84,4.21,9.09,9.09,0,0,1-6.58,1.4,2.07,2.07,0,0,0-1.19,1.72,1,1,0,0,0,.56.89,4.76,4.76,0,0,0,2,.3h3a6.67,6.67,0,0,1,4.35,1.22,4.27,4.27,0,0,1,1.48,3.51,5.11,5.11,0,0,1-2.42,4.53q-2.43,1.61-7,1.6a9.7,9.7,0,0,1-5.39-1.25,4,4,0,0,1-1.86-3.56,3.78,3.78,0,0,1,1-2.68,5.34,5.34,0,0,1,2.82-1.51,2.75,2.75,0,0,1-1.21-1,2.52,2.52,0,0,1-.48-1.46,2.48,2.48,0,0,1,.55-1.64,6.19,6.19,0,0,1,1.62-1.33,4.82,4.82,0,0,1-2.18-1.88,5.61,5.61,0,0,1-.83-3.06,5.49,5.49,0,0,1,1.77-4.36,7.46,7.46,0,0,1,5-1.54,11.81,11.81,0,0,1,1.54.1,10.61,10.61,0,0,1,1.21.21Zm-13.58,20a2,2,0,0,0,1.07,1.83,6,6,0,0,0,3,.64,9.13,9.13,0,0,0,4.47-.86,2.59,2.59,0,0,0,1.47-2.28,1.72,1.72,0,0,0-.81-1.61,6.55,6.55,0,0,0-3-.47h-2.78a3.89,3.89,0,0,0-2.51.74A2.42,2.42,0,0,0,390.12,308.09Zm1.58-14.38a3.45,3.45,0,0,0,.84,2.5,3.11,3.11,0,0,0,2.39.88q3.19,0,3.19-3.41a3.85,3.85,0,0,0-.79-2.6,3,3,0,0,0-2.4-.91,3.1,3.1,0,0,0-2.41.9A3.81,3.81,0,0,0,391.7,293.71Z"/><path class="cls-5" d="M427.18,299.2A5.76,5.76,0,0,1,425,304a9.61,9.61,0,0,1-6.07,1.73,14.56,14.56,0,0,1-6.35-1.2V301a17.12,17.12,0,0,0,3.32,1.15,13.64,13.64,0,0,0,3.28.43,5.16,5.16,0,0,0,3.27-.85,2.75,2.75,0,0,0,1.05-2.26,2.81,2.81,0,0,0-1-2.17,14.11,14.11,0,0,0-4-2.11,10.64,10.64,0,0,1-4.4-2.89,6.11,6.11,0,0,1-1.28-3.91,5.44,5.44,0,0,1,2-4.5,8.43,8.43,0,0,1,5.45-1.64,16,16,0,0,1,6.53,1.44l-1.18,3a14.41,14.41,0,0,0-5.44-1.28,4.19,4.19,0,0,0-2.75.79,2.58,2.58,0,0,0-.94,2.09,2.93,2.93,0,0,0,.38,1.52,3.92,3.92,0,0,0,1.23,1.2,21.83,21.83,0,0,0,3.09,1.48,17.15,17.15,0,0,1,3.69,1.95,5.88,5.88,0,0,1,1.72,2.05A6.24,6.24,0,0,1,427.18,299.2Z"/><path class="cls-5" d="M426.78,288.12h4l3.51,9.8a18.28,18.28,0,0,1,1.07,3.93h.12a17.89,17.89,0,0,1,.52-2.08q.38-1.23,4-11.65h4l-7.39,19.58q-2,5.39-6.71,5.39a10.4,10.4,0,0,1-2.38-.27v-2.9a8.92,8.92,0,0,0,1.89.18q2.66,0,3.74-3.07l.64-1.63Z"/><path class="cls-5" d="M457.43,300.48a4.51,4.51,0,0,1-1.85,3.88,8.84,8.84,0,0,1-5.28,1.35,12.63,12.63,0,0,1-5.55-1v-3.18a13.65,13.65,0,0,0,5.68,1.41c2.26,0,3.39-.68,3.39-2a1.63,1.63,0,0,0-.38-1.09,4.64,4.64,0,0,0-1.23-.91,23.35,23.35,0,0,0-2.39-1.06,11,11,0,0,1-4-2.31,4.29,4.29,0,0,1-1.06-3,4,4,0,0,1,1.79-3.45,8.5,8.5,0,0,1,4.87-1.22,13.88,13.88,0,0,1,5.77,1.23L456,291.81a12.87,12.87,0,0,0-4.71-1.16c-1.93,0-2.9.55-2.9,1.66a1.64,1.64,0,0,0,.76,1.37,16.25,16.25,0,0,0,3.3,1.55,15.52,15.52,0,0,1,3.11,1.51,4.49,4.49,0,0,1,1.44,1.59A4.61,4.61,0,0,1,457.43,300.48Z"/><path class="cls-5" d="M467.3,302.74a8.92,8.92,0,0,0,2.68-.42v2.77a7.18,7.18,0,0,1-1.57.44,10.75,10.75,0,0,1-2,.18q-5.22,0-5.22-5.5V290.9h-2.36v-1.62l2.53-1.35,1.25-3.65h2.27v3.84h4.92v2.78h-4.92v9.25a2.59,2.59,0,0,0,.66,2A2.46,2.46,0,0,0,467.3,302.74Z"/><path class="cls-5" d="M479.75,305.71a8.37,8.37,0,0,1-6.31-2.35,9,9,0,0,1-2.27-6.48,9.76,9.76,0,0,1,2.11-6.65,7.26,7.26,0,0,1,5.8-2.42,7.12,7.12,0,0,1,5.4,2.07,8,8,0,0,1,2,5.72v2H475a5.71,5.71,0,0,0,1.36,3.87,4.74,4.74,0,0,0,3.61,1.35,13.49,13.49,0,0,0,2.85-.29,16.12,16.12,0,0,0,2.84-1v3a11.45,11.45,0,0,1-2.72.91A17.39,17.39,0,0,1,479.75,305.71Zm-.67-15.12a3.69,3.69,0,0,0-2.81,1.11,5.34,5.34,0,0,0-1.26,3.23h7.85a4.79,4.79,0,0,0-1-3.24A3.56,3.56,0,0,0,479.08,290.59Z"/><path class="cls-5" d="M504.2,305.4h-3.69V294.74a4.83,4.83,0,0,0-.75-3,2.76,2.76,0,0,0-2.34-1,3.58,3.58,0,0,0-3.12,1.38,8.11,8.11,0,0,0-1,4.6v8.61h-3.67V288.12h2.87l.52,2.26h.18a4.83,4.83,0,0,1,2.09-1.9,6.68,6.68,0,0,1,3-.67c2.65,0,4.41.9,5.28,2.72h.25a5.16,5.16,0,0,1,2.16-2,6.8,6.8,0,0,1,3.18-.72,5.8,5.8,0,0,1,4.51,1.56,6.92,6.92,0,0,1,1.42,4.76V305.4h-3.68V294.74a4.83,4.83,0,0,0-.75-3,2.8,2.8,0,0,0-2.36-1,3.64,3.64,0,0,0-3.13,1.33,6.9,6.9,0,0,0-1,4.1Z"/><rect class="cls-6" x="39.76" y="66.55" width="146.53" height="191.68"/><polygon class="cls-2" points="39.76 66.55 74.42 46.59 220.95 46.59 186.3 66.55 39.76 66.55"/><polygon class="cls-3" points="186.3 258.23 220.95 248.27 220.95 46.59 186.3 66.55 186.3 258.23"/><rect class="cls-6" x="271.17" y="66.55" width="146.53" height="191.68"/><polygon class="cls-2" points="271.17 66.55 305.82 42.59 452.36 42.59 417.7 66.55 271.17 66.55"/><polygon class="cls-3" points="417.7 258.23 452.36 248.27 452.36 42.59 417.7 66.55 417.7 258.23"/><rect class="cls-6" x="495.57" y="66.55" width="146.53" height="191.68"/><polygon class="cls-2" points="495.57 66.55 530.23 42.59 676.76 42.59 642.11 66.55 495.57 66.55"/><polygon class="cls-3" points="642.11 258.23 676.76 247.27 676.76 42.59 642.11 66.55 642.11 258.23"/><path class="cls-5" d="M108,108.8h-2.15v-8.63c0-1,0-1.84.08-2.45l-.52.49-2,1.68-1.08-1.36,3.93-3.09H108Z"/><path class="cls-5" d="M118.53,105.92a2.63,2.63,0,0,1-1.08,2.27,5.15,5.15,0,0,1-3.09.79,7.28,7.28,0,0,1-3.24-.61v-1.85a8.08,8.08,0,0,0,3.32.82q2,0,2-1.2a.94.94,0,0,0-.22-.64,2.68,2.68,0,0,0-.72-.53,12.92,12.92,0,0,0-1.4-.62,6.48,6.48,0,0,1-2.36-1.35,2.52,2.52,0,0,1-.62-1.76,2.29,2.29,0,0,1,1.05-2,4.91,4.91,0,0,1,2.84-.72,8.11,8.11,0,0,1,3.38.72l-.7,1.62a7.54,7.54,0,0,0-2.75-.68c-1.13,0-1.7.33-1.7,1a1,1,0,0,0,.44.81,10.22,10.22,0,0,0,1.94.9,8.76,8.76,0,0,1,1.82.89,2.8,2.8,0,0,1,.84.92A2.75,2.75,0,0,1,118.53,105.92Z"/><path class="cls-5" d="M124.36,107.25a5.36,5.36,0,0,0,1.57-.25v1.62a4.52,4.52,0,0,1-.92.26,6.26,6.26,0,0,1-1.16.1q-3.06,0-3.06-3.21v-5.45h-1.38v-.95l1.49-.79.73-2.14H123v2.25h2.88v1.63H123v5.41a1.52,1.52,0,0,0,.39,1.15A1.45,1.45,0,0,0,124.36,107.25Z"/><path class="cls-5" d="M75.4,131.26l-1.34-3.71H69l-1.3,3.71H65.34l5-13.41h2.38l5,13.41Zm-1.91-5.59L72.24,122c-.1-.24-.22-.62-.38-1.15s-.28-.91-.34-1.15a19.14,19.14,0,0,1-.72,2.46l-1.21,3.48Z"/><path class="cls-5" d="M84.1,131.45a3.53,3.53,0,0,1-3-1.38H81c.08.85.13,1.37.13,1.55v4.14H79v-14.6h1.74c0,.18.14.64.3,1.35h.11a3.34,3.34,0,0,1,3-1.54,3.52,3.52,0,0,1,3,1.37,7.5,7.5,0,0,1,0,7.72A3.54,3.54,0,0,1,84.1,131.45Zm-.52-8.72a2.22,2.22,0,0,0-1.87.75,3.82,3.82,0,0,0-.59,2.39v.32a4.78,4.78,0,0,0,.58,2.68,2.18,2.18,0,0,0,1.91.82,1.93,1.93,0,0,0,1.72-.91,4.75,4.75,0,0,0,.6-2.61,4.63,4.63,0,0,0-.59-2.57A2,2,0,0,0,83.58,122.73Z"/><path class="cls-5" d="M95.21,131.45a3.53,3.53,0,0,1-3-1.38H92.1c.08.85.13,1.37.13,1.55v4.14H90.08v-14.6h1.73c0,.18.15.64.31,1.35h.11a3.34,3.34,0,0,1,3-1.54,3.52,3.52,0,0,1,3,1.37,7.5,7.5,0,0,1,0,7.72A3.54,3.54,0,0,1,95.21,131.45Zm-.52-8.72a2.22,2.22,0,0,0-1.87.75,3.82,3.82,0,0,0-.59,2.39v.32a4.78,4.78,0,0,0,.58,2.68,2.18,2.18,0,0,0,1.91.82,1.93,1.93,0,0,0,1.72-.91,4.75,4.75,0,0,0,.6-2.61,4.54,4.54,0,0,0-.6-2.57A2,2,0,0,0,94.69,122.73Z"/><path class="cls-5" d="M103.35,131.26H101.2V117h2.15Z"/><path class="cls-5" d="M105.65,118.48a1.19,1.19,0,0,1,.31-.89,1.22,1.22,0,0,1,.9-.31,1.18,1.18,0,0,1,.88.31,1.2,1.2,0,0,1,.32.89,1.17,1.17,0,0,1-.32.86,1.19,1.19,0,0,1-.88.32,1.22,1.22,0,0,1-.9-.32A1.16,1.16,0,0,1,105.65,118.48Zm2.27,12.78h-2.15v-10.1h2.15Z"/><path class="cls-5" d="M114.46,131.45a4.43,4.43,0,0,1-3.49-1.34,5.57,5.57,0,0,1-1.19-3.85,5.64,5.64,0,0,1,1.24-3.92,4.67,4.67,0,0,1,3.61-1.37,6.68,6.68,0,0,1,2.88.6l-.65,1.72a6.61,6.61,0,0,0-2.25-.53q-2.62,0-2.62,3.49a4.2,4.2,0,0,0,.65,2.55,2.28,2.28,0,0,0,1.92.86,5.44,5.44,0,0,0,2.71-.72v1.88a4.37,4.37,0,0,1-1.23.48A7.12,7.12,0,0,1,114.46,131.45Z"/><path class="cls-5" d="M125.53,131.26l-.43-1.4H125a4.19,4.19,0,0,1-1.47,1.25,4.57,4.57,0,0,1-1.91.34,3.2,3.2,0,0,1-2.32-.81,3,3,0,0,1-.84-2.27,2.69,2.69,0,0,1,1.16-2.36,6.74,6.74,0,0,1,3.54-.87l1.75,0v-.54a2,2,0,0,0-.46-1.45,1.84,1.84,0,0,0-1.4-.48,4.64,4.64,0,0,0-1.49.23,10.83,10.83,0,0,0-1.37.54l-.7-1.54a7.33,7.33,0,0,1,1.81-.65,8.19,8.19,0,0,1,1.84-.23,4.36,4.36,0,0,1,2.91.84,3.3,3.3,0,0,1,1,2.65v6.8Zm-3.2-1.46a2.69,2.69,0,0,0,1.88-.65,2.39,2.39,0,0,0,.71-1.83v-.88l-1.3,0a4.51,4.51,0,0,0-2.21.51,1.54,1.54,0,0,0-.69,1.39,1.36,1.36,0,0,0,.4,1A1.72,1.72,0,0,0,122.33,129.8Z"/><path class="cls-5" d="M133.21,129.71a5.1,5.1,0,0,0,1.57-.25v1.62a4.11,4.11,0,0,1-.92.26,6.28,6.28,0,0,1-1.17.11q-3,0-3.05-3.22v-5.45h-1.38v-1l1.48-.78.73-2.14h1.33v2.25h2.88v1.62H131.8v5.41a1.52,1.52,0,0,0,.39,1.15A1.41,1.41,0,0,0,133.21,129.71Z"/><path class="cls-5" d="M136.05,118.48a1.19,1.19,0,0,1,.31-.89,1.45,1.45,0,0,1,1.79,0,1.19,1.19,0,0,1,.31.89,1.16,1.16,0,0,1-.31.86,1.41,1.41,0,0,1-1.79,0A1.16,1.16,0,0,1,136.05,118.48Zm2.27,12.78h-2.14v-10.1h2.14Z"/><path class="cls-5" d="M149.75,126.19a5.57,5.57,0,0,1-1.27,3.87,4.59,4.59,0,0,1-3.54,1.39,4.87,4.87,0,0,1-2.5-.64,4.23,4.23,0,0,1-1.68-1.84,6.25,6.25,0,0,1-.58-2.78,5.49,5.49,0,0,1,1.26-3.84A4.56,4.56,0,0,1,145,121a4.44,4.44,0,0,1,3.48,1.42A5.46,5.46,0,0,1,149.75,126.19Zm-7.36,0c0,2.34.86,3.5,2.59,3.5s2.56-1.16,2.56-3.5-.86-3.46-2.58-3.46a2.21,2.21,0,0,0-2,.89A4.54,4.54,0,0,0,142.39,126.19Z"/><path class="cls-5" d="M160.52,131.26h-2.16v-6.21a2.71,2.71,0,0,0-.47-1.75,1.82,1.82,0,0,0-1.49-.57,2.38,2.38,0,0,0-2,.8,4.39,4.39,0,0,0-.64,2.7v5h-2.14v-10.1h1.68l.3,1.32h.11a3,3,0,0,1,1.3-1.11,4.22,4.22,0,0,1,1.86-.4c2.43,0,3.64,1.24,3.64,3.7Z"/><path class="cls-5" d="M106.81,177.66h-2.14V169c0-1,0-1.84.07-2.45a6.47,6.47,0,0,1-.52.49c-.2.17-.89.74-2,1.68l-1.08-1.36L105,164.3h1.79Z"/><path class="cls-5" d="M117.32,174.78a2.63,2.63,0,0,1-1.08,2.27,5.15,5.15,0,0,1-3.09.79,7.3,7.3,0,0,1-3.25-.61v-1.85a8,8,0,0,0,3.32.82q2,0,2-1.2a1,1,0,0,0-.21-.64,2.59,2.59,0,0,0-.73-.53,12.09,12.09,0,0,0-1.4-.62,6.48,6.48,0,0,1-2.36-1.35,2.52,2.52,0,0,1-.62-1.76,2.3,2.3,0,0,1,1.05-2,5,5,0,0,1,2.85-.72,8.06,8.06,0,0,1,3.37.72l-.69,1.62a7.54,7.54,0,0,0-2.75-.68c-1.14,0-1.7.33-1.7,1a1,1,0,0,0,.44.81,9.44,9.44,0,0,0,1.93.9,8.51,8.51,0,0,1,1.82.89,2.62,2.62,0,0,1,.84.93A2.68,2.68,0,0,1,117.32,174.78Z"/><path class="cls-5" d="M123.14,176.11a5.11,5.11,0,0,0,1.58-.25v1.62a4.72,4.72,0,0,1-.92.26,6.45,6.45,0,0,1-1.17.1q-3,0-3-3.21v-5.45H118.2v-1l1.48-.79.73-2.14h1.33v2.25h2.88v1.63h-2.88v5.41a1.56,1.56,0,0,0,.38,1.15A1.45,1.45,0,0,0,123.14,176.11Z"/><path class="cls-5" d="M64.3,193.32a6.66,6.66,0,0,1-1.84,5.06,7.39,7.39,0,0,1-5.29,1.75H53.43V186.76h4.14a6.86,6.86,0,0,1,5,1.72A6.44,6.44,0,0,1,64.3,193.32Zm-2.3.07q0-4.8-4.49-4.8H55.62v9.7h1.55Q62,198.29,62,193.39Z"/><path class="cls-5" d="M70.82,200.31a4.89,4.89,0,0,1-3.69-1.38,5.2,5.2,0,0,1-1.33-3.79A5.7,5.7,0,0,1,67,191.25a4.27,4.27,0,0,1,3.39-1.42,4.17,4.17,0,0,1,3.16,1.22,4.66,4.66,0,0,1,1.16,3.34v1.17H68a3.32,3.32,0,0,0,.8,2.26,2.75,2.75,0,0,0,2.11.79,8,8,0,0,0,1.67-.17,8.77,8.77,0,0,0,1.66-.56v1.74a6.6,6.6,0,0,1-1.59.53A9.27,9.27,0,0,1,70.82,200.31Zm-.39-8.85a2.15,2.15,0,0,0-1.64.65,3,3,0,0,0-.74,1.89h4.59a2.81,2.81,0,0,0-.6-1.89A2.07,2.07,0,0,0,70.43,191.46Z"/><path class="cls-5" d="M81.79,200.31a3.54,3.54,0,0,1-3-1.38h-.13c.09.85.13,1.37.13,1.55v4.14H76.66V190H78.4q.07.28.3,1.35h.11a3.38,3.38,0,0,1,3-1.54,3.53,3.53,0,0,1,3,1.37,7.56,7.56,0,0,1,0,7.72A3.55,3.55,0,0,1,81.79,200.31Zm-.52-8.72a2.25,2.25,0,0,0-1.87.75,3.9,3.9,0,0,0-.59,2.39v.32a4.75,4.75,0,0,0,.59,2.68,2.17,2.17,0,0,0,1.91.82,2,2,0,0,0,1.72-.91,4.75,4.75,0,0,0,.6-2.61,4.54,4.54,0,0,0-.6-2.57A2,2,0,0,0,81.27,191.59Z"/><path class="cls-5" d="M92.28,200.31a4.86,4.86,0,0,1-3.69-1.38,5.2,5.2,0,0,1-1.33-3.79,5.74,5.74,0,0,1,1.23-3.89,4.27,4.27,0,0,1,3.39-1.42A4.15,4.15,0,0,1,95,191.05a4.63,4.63,0,0,1,1.17,3.34v1.17H89.47a3.32,3.32,0,0,0,.79,2.26,2.78,2.78,0,0,0,2.12.79,7.91,7.91,0,0,0,1.66-.17,8.55,8.55,0,0,0,1.66-.56v1.74a6.33,6.33,0,0,1-1.59.53A9.16,9.16,0,0,1,92.28,200.31Zm-.4-8.85a2.17,2.17,0,0,0-1.64.65,3,3,0,0,0-.73,1.89h4.58a2.76,2.76,0,0,0-.6-1.89A2.07,2.07,0,0,0,91.88,191.46Z"/><path class="cls-5" d="M107,200.13h-2.15v-6.22a2.77,2.77,0,0,0-.47-1.75,1.85,1.85,0,0,0-1.5-.57,2.38,2.38,0,0,0-2,.8,4.47,4.47,0,0,0-.63,2.7v5H98.12V190H99.8l.3,1.32h.11a3,3,0,0,1,1.3-1.11,4.24,4.24,0,0,1,1.87-.4q3.63,0,3.63,3.71Z"/><path class="cls-5" d="M112.87,200.31a3.53,3.53,0,0,1-3-1.37,7.53,7.53,0,0,1,0-7.72,3.58,3.58,0,0,1,3-1.39,3.46,3.46,0,0,1,3,1.48h.11a13.42,13.42,0,0,1-.15-1.72V185.9h2.15v14.23h-1.68L116,198.8h-.1A3.43,3.43,0,0,1,112.87,200.31Zm.58-1.74a2.37,2.37,0,0,0,1.93-.74,4,4,0,0,0,.62-2.42v-.3a4.58,4.58,0,0,0-.62-2.72,2.34,2.34,0,0,0-1.95-.8,2,2,0,0,0-1.75.92,4.76,4.76,0,0,0-.61,2.62,4.55,4.55,0,0,0,.6,2.56A2,2,0,0,0,113.45,198.57Z"/><path class="cls-5" d="M125,200.31a4.89,4.89,0,0,1-3.69-1.38,5.2,5.2,0,0,1-1.33-3.79,5.74,5.74,0,0,1,1.23-3.89,4.31,4.31,0,0,1,3.4-1.42,4.18,4.18,0,0,1,3.16,1.22,4.66,4.66,0,0,1,1.16,3.34v1.17h-6.74a3.32,3.32,0,0,0,.8,2.26,2.75,2.75,0,0,0,2.11.79,8,8,0,0,0,1.67-.17,8.77,8.77,0,0,0,1.66-.56v1.74a6.6,6.6,0,0,1-1.59.53A9.27,9.27,0,0,1,125,200.31Zm-.39-8.85a2.19,2.19,0,0,0-1.65.65,3.09,3.09,0,0,0-.73,1.89h4.59a2.76,2.76,0,0,0-.61-1.89A2.05,2.05,0,0,0,124.57,191.46Z"/><path class="cls-5" d="M139.7,200.13h-2.16v-6.22a2.77,2.77,0,0,0-.47-1.75,1.82,1.82,0,0,0-1.49-.57,2.4,2.4,0,0,0-2,.8,4.47,4.47,0,0,0-.63,2.7v5H130.8V190h1.69l.3,1.32h.11a2.93,2.93,0,0,1,1.29-1.11,4.3,4.3,0,0,1,1.87-.4c2.42,0,3.64,1.24,3.64,3.71Z"/><path class="cls-5" d="M146.19,200.31A4.45,4.45,0,0,1,142.7,199a5.6,5.6,0,0,1-1.19-3.84,5.67,5.67,0,0,1,1.25-3.93,4.63,4.63,0,0,1,3.6-1.37,6.68,6.68,0,0,1,2.88.6l-.65,1.73a6.29,6.29,0,0,0-2.24-.53q-2.62,0-2.63,3.48a4.13,4.13,0,0,0,.66,2.55,2.25,2.25,0,0,0,1.91.86,5.48,5.48,0,0,0,2.72-.72v1.88a4.31,4.31,0,0,1-1.23.48A7.28,7.28,0,0,1,146.19,200.31Z"/><path class="cls-5" d="M150.59,187.34a1.19,1.19,0,0,1,.31-.89,1.22,1.22,0,0,1,.9-.31,1.18,1.18,0,0,1,.88.31,1.2,1.2,0,0,1,.32.89,1.17,1.17,0,0,1-.32.86,1.19,1.19,0,0,1-.88.32,1.22,1.22,0,0,1-.9-.32A1.16,1.16,0,0,1,150.59,187.34Zm2.27,12.79h-2.15V190h2.15Z"/><path class="cls-5" d="M159.73,200.31a4.86,4.86,0,0,1-3.68-1.38,5.2,5.2,0,0,1-1.33-3.79,5.74,5.74,0,0,1,1.23-3.89,4.27,4.27,0,0,1,3.39-1.42,4.15,4.15,0,0,1,3.16,1.22,4.63,4.63,0,0,1,1.17,3.34v1.17h-6.74a3.32,3.32,0,0,0,.79,2.26,2.78,2.78,0,0,0,2.12.79,7.91,7.91,0,0,0,1.66-.17,8.55,8.55,0,0,0,1.66-.56v1.74a6.33,6.33,0,0,1-1.59.53A9.2,9.2,0,0,1,159.73,200.31Zm-.39-8.85a2.17,2.17,0,0,0-1.64.65A3.09,3.09,0,0,0,157,194h4.59a2.76,2.76,0,0,0-.6-1.89A2.07,2.07,0,0,0,159.34,191.46Z"/><path class="cls-5" d="M172.43,197.25a2.65,2.65,0,0,1-1.08,2.27,5.15,5.15,0,0,1-3.09.79,7.22,7.22,0,0,1-3.24-.61v-1.86a7.89,7.89,0,0,0,3.31.82c1.33,0,2-.4,2-1.19a1,1,0,0,0-.22-.64,2.68,2.68,0,0,0-.72-.53,13.59,13.59,0,0,0-1.4-.63,6.54,6.54,0,0,1-2.37-1.35,2.49,2.49,0,0,1-.61-1.75,2.32,2.32,0,0,1,1-2,5,5,0,0,1,2.85-.72,7.92,7.92,0,0,1,3.37.73l-.69,1.61a7.5,7.5,0,0,0-2.75-.67c-1.13,0-1.7.32-1.7,1a1,1,0,0,0,.44.8,10.05,10.05,0,0,0,1.94.91,8.45,8.45,0,0,1,1.81.88,2.76,2.76,0,0,1,.85.93A2.73,2.73,0,0,1,172.43,197.25Z"/><path class="cls-5" d="M337,115h-9.68v-1.74l3.68-3.7c1.09-1.12,1.81-1.91,2.17-2.37a5.81,5.81,0,0,0,.77-1.32,3.6,3.6,0,0,0,.25-1.32,2,2,0,0,0-.59-1.52,2.21,2.21,0,0,0-1.6-.56,4.32,4.32,0,0,0-1.59.3,7.67,7.67,0,0,0-1.77,1.1l-1.24-1.52a7.9,7.9,0,0,1,2.31-1.42,6.79,6.79,0,0,1,2.39-.42,4.69,4.69,0,0,1,3.2,1,3.52,3.52,0,0,1,1.2,2.8,4.73,4.73,0,0,1-.35,1.83,7.47,7.47,0,0,1-1.06,1.8,25.82,25.82,0,0,1-2.39,2.49l-2.48,2.41v.1H337Z"/><path class="cls-5" d="M348.31,115H346v-6.65a2.87,2.87,0,0,0-.5-1.86,2,2,0,0,0-1.6-.62,2.55,2.55,0,0,0-2.13.86,4.75,4.75,0,0,0-.67,2.88V115h-2.3V104.2h1.8l.32,1.42H341a3.18,3.18,0,0,1,1.39-1.19,4.64,4.64,0,0,1,2-.42q3.88,0,3.89,3.95Z"/><path class="cls-5" d="M354.57,115.2a3.76,3.76,0,0,1-3.15-1.46,8,8,0,0,1,0-8.25,3.8,3.8,0,0,1,3.18-1.48,3.71,3.71,0,0,1,3.24,1.57H358a13.79,13.79,0,0,1-.16-1.84V99.8h2.3V115h-1.8l-.4-1.42h-.1A3.67,3.67,0,0,1,354.57,115.2Zm.62-1.85a2.51,2.51,0,0,0,2.06-.8,4.16,4.16,0,0,0,.66-2.58v-.33a4.86,4.86,0,0,0-.66-2.9,2.47,2.47,0,0,0-2.08-.86,2.13,2.13,0,0,0-1.87,1,5.11,5.11,0,0,0-.65,2.8,4.91,4.91,0,0,0,.63,2.74A2.16,2.16,0,0,0,355.19,113.35Z"/><path class="cls-5" d="M303.18,139l-1.43-4h-5.46l-1.4,4h-2.46l5.35-14.34h2.54L305.66,139Zm-2-6-1.34-3.89c-.1-.26-.23-.67-.41-1.23s-.29-1-.35-1.23a24.54,24.54,0,0,1-.77,2.63L297,133Z"/><path class="cls-5" d="M312.48,139.21a3.8,3.8,0,0,1-3.19-1.47h-.13c.09.91.13,1.46.13,1.66v4.43H307V128.21h1.85c.06.2.16.69.33,1.45h.11a3.59,3.59,0,0,1,3.23-1.64,3.76,3.76,0,0,1,3.15,1.46,8,8,0,0,1,0,8.25A3.78,3.78,0,0,1,312.48,139.21Zm-.56-9.32a2.4,2.4,0,0,0-2,.8,4.17,4.17,0,0,0-.63,2.56v.35a5,5,0,0,0,.63,2.85,2.32,2.32,0,0,0,2,.89,2.09,2.09,0,0,0,1.84-1,5,5,0,0,0,.64-2.78,4.82,4.82,0,0,0-.64-2.75A2.11,2.11,0,0,0,311.92,129.89Z"/><path class="cls-5" d="M324.35,139.21a3.77,3.77,0,0,1-3.18-1.47H321c.09.91.14,1.46.14,1.66v4.43h-2.3V128.21h1.86c0,.2.16.69.32,1.45h.12a3.57,3.57,0,0,1,3.22-1.64,3.76,3.76,0,0,1,3.15,1.46,8,8,0,0,1,0,8.25A3.77,3.77,0,0,1,324.35,139.21Zm-.55-9.32a2.39,2.39,0,0,0-2,.8,4.17,4.17,0,0,0-.63,2.56v.35a5.1,5.1,0,0,0,.62,2.85,2.34,2.34,0,0,0,2,.89,2.07,2.07,0,0,0,1.83-1,5,5,0,0,0,.65-2.78,4.9,4.9,0,0,0-.64-2.75A2.13,2.13,0,0,0,323.8,129.89Z"/><path class="cls-5" d="M333.06,139h-2.3v-15.2h2.3Z"/><path class="cls-5" d="M335.51,125.35a1.26,1.26,0,0,1,.34-.95,1.3,1.3,0,0,1,1-.33,1.17,1.17,0,0,1,1.28,1.28,1.21,1.21,0,0,1-.34.92,1.23,1.23,0,0,1-.94.34,1.26,1.26,0,0,1-1-.34A1.21,1.21,0,0,1,335.51,125.35ZM337.94,139h-2.29V128.21h2.29Z"/><path class="cls-5" d="M344.93,139.21a4.71,4.71,0,0,1-3.73-1.43,7.28,7.28,0,0,1,.06-8.3,5,5,0,0,1,3.85-1.46,7.28,7.28,0,0,1,3.08.63l-.69,1.85a6.91,6.91,0,0,0-2.4-.57q-2.81,0-2.81,3.72a4.44,4.44,0,0,0,.7,2.74,2.41,2.41,0,0,0,2.05.91,6,6,0,0,0,2.9-.76v2a4.72,4.72,0,0,1-1.32.52A8.15,8.15,0,0,1,344.93,139.21Z"/><path class="cls-5" d="M356.77,139l-.46-1.51h-.08a4.5,4.5,0,0,1-1.57,1.35,5.16,5.16,0,0,1-2,.35,3.39,3.39,0,0,1-2.48-.86,3.19,3.19,0,0,1-.9-2.43,2.88,2.88,0,0,1,1.24-2.52,7.12,7.12,0,0,1,3.78-.93l1.87-.06v-.57a2.2,2.2,0,0,0-.48-1.55,2,2,0,0,0-1.5-.51,5.3,5.3,0,0,0-1.6.24,12.32,12.32,0,0,0-1.46.58l-.74-1.65a8.08,8.08,0,0,1,1.92-.69,8.89,8.89,0,0,1,2-.24,4.68,4.68,0,0,1,3.12.9,3.52,3.52,0,0,1,1.05,2.82V139Zm-3.42-1.56a2.85,2.85,0,0,0,2-.7,2.52,2.52,0,0,0,.76-2v-.94l-1.39.06a4.82,4.82,0,0,0-2.36.54,1.65,1.65,0,0,0-.73,1.48,1.43,1.43,0,0,0,.43,1.12A1.84,1.84,0,0,0,353.35,137.46Z"/><path class="cls-5" d="M365,137.36a5.46,5.46,0,0,0,1.68-.27v1.73a4.32,4.32,0,0,1-1,.28,6.39,6.39,0,0,1-1.25.11c-2.17,0-3.26-1.14-3.26-3.44V130h-1.48v-1l1.59-.84.78-2.29h1.42v2.4h3.07V130h-3.07v5.79a1.59,1.59,0,0,0,.41,1.22A1.5,1.5,0,0,0,365,137.36Z"/><path class="cls-5" d="M368,125.35a1.29,1.29,0,0,1,.33-.95,1.34,1.34,0,0,1,1-.33,1.17,1.17,0,0,1,1.28,1.28,1.18,1.18,0,0,1-1.28,1.26,1.3,1.3,0,0,1-1-.34A1.25,1.25,0,0,1,368,125.35ZM370.44,139h-2.3V128.21h2.3Z"/><path class="cls-5" d="M382.65,133.6a5.88,5.88,0,0,1-1.36,4.13,4.85,4.85,0,0,1-3.78,1.48,5.16,5.16,0,0,1-2.68-.68,4.52,4.52,0,0,1-1.78-2,6.69,6.69,0,0,1-.63-3,5.87,5.87,0,0,1,1.35-4.11,4.89,4.89,0,0,1,3.8-1.47,4.74,4.74,0,0,1,3.71,1.51A5.83,5.83,0,0,1,382.65,133.6Zm-7.86,0q0,3.74,2.76,3.74c1.82,0,2.74-1.25,2.74-3.74s-.92-3.71-2.76-3.71a2.34,2.34,0,0,0-2.09,1A4.82,4.82,0,0,0,374.79,133.6Z"/><path class="cls-5" d="M394.17,139h-2.31v-6.65a2.93,2.93,0,0,0-.5-1.86,2,2,0,0,0-1.6-.62,2.55,2.55,0,0,0-2.13.86,4.76,4.76,0,0,0-.68,2.88V139h-2.29V128.21h1.8l.32,1.42h.12a3.1,3.1,0,0,1,1.38-1.19,4.68,4.68,0,0,1,2-.42q3.89,0,3.89,3.95Z"/><path class="cls-5" d="M335.66,181.24H326v-1.73l3.68-3.71a30.78,30.78,0,0,0,2.17-2.37,5.56,5.56,0,0,0,.77-1.31,3.6,3.6,0,0,0,.25-1.32,2,2,0,0,0-.58-1.52,2.21,2.21,0,0,0-1.61-.56,4.32,4.32,0,0,0-1.59.3,7.34,7.34,0,0,0-1.77,1.1l-1.24-1.52a7.9,7.9,0,0,1,2.31-1.42,6.81,6.81,0,0,1,2.4-.42,4.68,4.68,0,0,1,3.19,1,3.5,3.5,0,0,1,1.2,2.8,4.92,4.92,0,0,1-.34,1.83,7.62,7.62,0,0,1-1.07,1.79,23.49,23.49,0,0,1-2.39,2.5l-2.48,2.4v.1h6.78Z"/><path class="cls-5" d="M347,181.24h-2.3V174.6a2.92,2.92,0,0,0-.51-1.87,1.93,1.93,0,0,0-1.59-.61,2.53,2.53,0,0,0-2.13.86,4.72,4.72,0,0,0-.68,2.88v5.38h-2.3v-10.8h1.8l.33,1.42h.11a3.2,3.2,0,0,1,1.39-1.2,4.64,4.64,0,0,1,2-.42c2.6,0,3.89,1.32,3.89,4Z"/><path class="cls-5" d="M353.27,181.44a3.74,3.74,0,0,1-3.15-1.47,6.53,6.53,0,0,1-1.14-4.11,6.66,6.66,0,0,1,1.15-4.14,3.83,3.83,0,0,1,3.18-1.48,3.75,3.75,0,0,1,3.25,1.58h.11a13.79,13.79,0,0,1-.16-1.84V166h2.3v15.2H357l-.4-1.41h-.1A3.69,3.69,0,0,1,353.27,181.44Zm.62-1.86a2.5,2.5,0,0,0,2.06-.79,4.17,4.17,0,0,0,.66-2.59v-.32A4.86,4.86,0,0,0,356,173a2.47,2.47,0,0,0-2.08-.86,2.13,2.13,0,0,0-1.87,1,5.11,5.11,0,0,0-.65,2.8,4.94,4.94,0,0,0,.63,2.74A2.15,2.15,0,0,0,353.89,179.58Z"/><path class="cls-5" d="M291.32,198a7.1,7.1,0,0,1-2,5.4,7.89,7.89,0,0,1-5.66,1.88h-4V191h4.42a7.27,7.27,0,0,1,5.3,1.84A6.84,6.84,0,0,1,291.32,198Zm-2.46.07q0-5.12-4.8-5.12h-2v10.36h1.66C287.14,203.29,288.86,201.55,288.86,198.05Z"/><path class="cls-5" d="M298.29,205.45a5.25,5.25,0,0,1-4-1.47,5.61,5.61,0,0,1-1.42-4,6.13,6.13,0,0,1,1.32-4.16,4.57,4.57,0,0,1,3.63-1.52,4.49,4.49,0,0,1,3.38,1.3,5,5,0,0,1,1.24,3.58v1.24h-7.2a3.5,3.5,0,0,0,.85,2.42,3,3,0,0,0,2.25.84,8.42,8.42,0,0,0,1.79-.18,9.25,9.25,0,0,0,1.77-.6v1.87a6.91,6.91,0,0,1-1.7.56A9.67,9.67,0,0,1,298.29,205.45Zm-.42-9.46a2.33,2.33,0,0,0-1.76.7,3.25,3.25,0,0,0-.78,2h4.9a3,3,0,0,0-.64-2A2.21,2.21,0,0,0,297.87,196Z"/><path class="cls-5" d="M310,205.45a3.8,3.8,0,0,1-3.19-1.47h-.14c.09.91.14,1.46.14,1.66v4.42h-2.3V194.45h1.86c.05.2.16.68.32,1.45h.12a3.59,3.59,0,0,1,3.22-1.65,3.77,3.77,0,0,1,3.16,1.47,8.09,8.09,0,0,1,0,8.25A3.8,3.8,0,0,1,310,205.45Zm-.56-9.32a2.4,2.4,0,0,0-2,.8,4.17,4.17,0,0,0-.63,2.56v.34a5,5,0,0,0,.63,2.86,2.31,2.31,0,0,0,2,.89,2.07,2.07,0,0,0,1.83-1,5,5,0,0,0,.65-2.79,4.86,4.86,0,0,0-.64-2.75A2.14,2.14,0,0,0,309.46,196.13Z"/><path class="cls-5" d="M321.22,205.45a5.23,5.23,0,0,1-3.94-1.47,5.57,5.57,0,0,1-1.42-4,6.13,6.13,0,0,1,1.32-4.16,4.53,4.53,0,0,1,3.62-1.52,4.47,4.47,0,0,1,3.38,1.3,5,5,0,0,1,1.24,3.58v1.24h-7.2a3.55,3.55,0,0,0,.85,2.42,3,3,0,0,0,2.26.84,8.32,8.32,0,0,0,1.78-.18,9.25,9.25,0,0,0,1.77-.6v1.87a6.78,6.78,0,0,1-1.7.56A9.6,9.6,0,0,1,321.22,205.45ZM320.8,196a2.31,2.31,0,0,0-1.75.7,3.25,3.25,0,0,0-.79,2h4.9a3,3,0,0,0-.64-2A2.21,2.21,0,0,0,320.8,196Z"/><path class="cls-5" d="M337,205.26h-2.3v-6.65a2.93,2.93,0,0,0-.5-1.86,2,2,0,0,0-1.6-.62,2.55,2.55,0,0,0-2.13.86,4.72,4.72,0,0,0-.68,2.88v5.39h-2.29V194.45h1.8l.32,1.42h.12a3.19,3.19,0,0,1,1.38-1.2,4.68,4.68,0,0,1,2-.42q3.89,0,3.88,4Z"/><path class="cls-5" d="M343.24,205.45a3.78,3.78,0,0,1-3.16-1.46,6.58,6.58,0,0,1-1.13-4.12,6.66,6.66,0,0,1,1.14-4.14,3.83,3.83,0,0,1,3.18-1.48,3.74,3.74,0,0,1,3.25,1.58h.12a12.54,12.54,0,0,1-.17-1.84v-3.94h2.31v15.21H347l-.4-1.42h-.11A3.68,3.68,0,0,1,343.24,205.45Zm.61-1.86a2.49,2.49,0,0,0,2.06-.79,4.24,4.24,0,0,0,.67-2.59v-.32a4.78,4.78,0,0,0-.67-2.9,2.46,2.46,0,0,0-2.08-.86,2.1,2.1,0,0,0-1.86,1,5,5,0,0,0-.66,2.8,4.85,4.85,0,0,0,.64,2.74A2.12,2.12,0,0,0,343.85,203.59Z"/><path class="cls-5" d="M356.15,205.45a5.23,5.23,0,0,1-3.94-1.47,5.57,5.57,0,0,1-1.42-4,6.13,6.13,0,0,1,1.32-4.16,4.56,4.56,0,0,1,3.62-1.52,4.5,4.5,0,0,1,3.39,1.3,5,5,0,0,1,1.24,3.58v1.24h-7.2a3.5,3.5,0,0,0,.85,2.42,3,3,0,0,0,2.25.84,8.32,8.32,0,0,0,1.78-.18,9.1,9.1,0,0,0,1.78-.6v1.87a6.91,6.91,0,0,1-1.7.56A9.77,9.77,0,0,1,356.15,205.45Zm-.42-9.46a2.31,2.31,0,0,0-1.75.7,3.31,3.31,0,0,0-.79,2h4.91a3,3,0,0,0-.65-2A2.19,2.19,0,0,0,355.73,196Z"/><path class="cls-5" d="M371.91,205.26H369.6v-6.65a2.87,2.87,0,0,0-.5-1.86,2,2,0,0,0-1.6-.62,2.55,2.55,0,0,0-2.13.86,4.73,4.73,0,0,0-.67,2.88v5.39h-2.3V194.45h1.8l.32,1.42h.12a3.21,3.21,0,0,1,1.39-1.2,4.64,4.64,0,0,1,2-.42q3.89,0,3.89,4Z"/><path class="cls-5" d="M378.85,205.45a4.74,4.74,0,0,1-3.73-1.43,7.28,7.28,0,0,1,.06-8.3,4.93,4.93,0,0,1,3.85-1.47,7.28,7.28,0,0,1,3.08.64l-.69,1.85a6.91,6.91,0,0,0-2.4-.57q-2.81,0-2.81,3.72a4.43,4.43,0,0,0,.7,2.73,2.42,2.42,0,0,0,2,.92,5.86,5.86,0,0,0,2.9-.77v2a4.41,4.41,0,0,1-1.32.51A7.46,7.46,0,0,1,378.85,205.45Z"/><path class="cls-5" d="M383.55,191.59a1.29,1.29,0,0,1,.33-1,1.34,1.34,0,0,1,1-.33,1.28,1.28,0,0,1,.94.33,1.3,1.3,0,0,1,.34,1,1.18,1.18,0,0,1-1.28,1.26,1.3,1.3,0,0,1-1-.34A1.25,1.25,0,0,1,383.55,191.59ZM386,205.26h-2.3V194.45H386Z"/><path class="cls-5" d="M393.33,205.45a5.24,5.24,0,0,1-3.95-1.47,5.61,5.61,0,0,1-1.42-4,6.13,6.13,0,0,1,1.32-4.16,4.57,4.57,0,0,1,3.63-1.52,4.49,4.49,0,0,1,3.38,1.3,5,5,0,0,1,1.24,3.58v1.24h-7.2a3.5,3.5,0,0,0,.85,2.42,3,3,0,0,0,2.25.84,8.42,8.42,0,0,0,1.79-.18,9.25,9.25,0,0,0,1.77-.6v1.87a6.91,6.91,0,0,1-1.7.56A9.67,9.67,0,0,1,393.33,205.45Zm-.42-9.46a2.33,2.33,0,0,0-1.76.7,3.31,3.31,0,0,0-.79,2h4.91a3,3,0,0,0-.65-2A2.19,2.19,0,0,0,392.91,196Z"/><path class="cls-5" d="M406.89,202.18a2.84,2.84,0,0,1-1.15,2.43,5.55,5.55,0,0,1-3.3.84,7.89,7.89,0,0,1-3.47-.65v-2a8.45,8.45,0,0,0,3.55.88c1.41,0,2.12-.42,2.12-1.28a1,1,0,0,0-.24-.68,2.78,2.78,0,0,0-.77-.57,16,16,0,0,0-1.49-.66,6.89,6.89,0,0,1-2.53-1.45,2.67,2.67,0,0,1-.66-1.87,2.46,2.46,0,0,1,1.12-2.16,5.32,5.32,0,0,1,3-.77,8.55,8.55,0,0,1,3.61.78l-.74,1.73A7.92,7.92,0,0,0,403,196c-1.22,0-1.82.35-1.82,1a1.06,1.06,0,0,0,.47.86,11.56,11.56,0,0,0,2.07,1,9.48,9.48,0,0,1,1.94.94,2.79,2.79,0,0,1,.9,1A2.86,2.86,0,0,1,406.89,202.18Z"/><path class="cls-5" d="M563.89,103.9a3.18,3.18,0,0,1-.77,2.2,3.85,3.85,0,0,1-2.17,1.19v.08a4.19,4.19,0,0,1,2.52,1,3,3,0,0,1,.83,2.21,3.66,3.66,0,0,1-1.42,3.1,6.46,6.46,0,0,1-4,1.1,9.11,9.11,0,0,1-3.91-.76v-2a9.15,9.15,0,0,0,1.88.68,8,8,0,0,0,1.9.24,4,4,0,0,0,2.42-.6,2.18,2.18,0,0,0,.8-1.86,1.77,1.77,0,0,0-.88-1.64,5.67,5.67,0,0,0-2.79-.52h-1.2v-1.82h1.22c2.23,0,3.34-.77,3.34-2.31a1.74,1.74,0,0,0-.58-1.38,2.65,2.65,0,0,0-1.72-.48,5.13,5.13,0,0,0-1.52.22,7.37,7.37,0,0,0-1.74.87L555,101.91a7.31,7.31,0,0,1,4.45-1.41,5.22,5.22,0,0,1,3.28.91A3,3,0,0,1,563.89,103.9Z"/><path class="cls-5" d="M571.73,103.9a4.89,4.89,0,0,1,1.11.1l-.22,2.08a4.62,4.62,0,0,0-1-.11,2.9,2.9,0,0,0-2.18.87,3.21,3.21,0,0,0-.83,2.28v5.51h-2.24V104.09h1.76l.29,1.86h.11a4.22,4.22,0,0,1,1.37-1.5A3.24,3.24,0,0,1,571.73,103.9Z"/><path class="cls-5" d="M577.74,114.82a3.67,3.67,0,0,1-3.08-1.43,6.42,6.42,0,0,1-1.11-4,6.49,6.49,0,0,1,1.12-4,3.71,3.71,0,0,1,3.1-1.44,3.65,3.65,0,0,1,3.17,1.53h.11a12.92,12.92,0,0,1-.16-1.79V99.8h2.25v14.83h-1.76l-.39-1.39h-.1A3.58,3.58,0,0,1,577.74,114.82Zm.6-1.81a2.4,2.4,0,0,0,2-.78,4.07,4.07,0,0,0,.65-2.52v-.31a4.66,4.66,0,0,0-.65-2.83,2.38,2.38,0,0,0-2-.84,2,2,0,0,0-1.82,1,4.83,4.83,0,0,0-.64,2.73,4.75,4.75,0,0,0,.62,2.67A2.09,2.09,0,0,0,578.34,113Z"/><path class="cls-5" d="M529.56,138l-1.39-3.86h-5.32L521.48,138h-2.4l5.21-14h2.48L532,138Zm-2-5.83-1.3-3.79c-.1-.25-.23-.65-.4-1.2s-.28-.94-.35-1.2a20.74,20.74,0,0,1-.75,2.56l-1.26,3.63Z"/><path class="cls-5" d="M538.63,138.22a3.69,3.69,0,0,1-3.11-1.44h-.13c.09.89.13,1.43.13,1.62v4.32h-2.24V127.5h1.81c0,.2.16.66.32,1.41h.11a3.5,3.5,0,0,1,3.14-1.6,3.65,3.65,0,0,1,3.08,1.43,7.82,7.82,0,0,1,0,8A3.69,3.69,0,0,1,538.63,138.22Zm-.55-9.08a2.3,2.3,0,0,0-1.94.78,4,4,0,0,0-.62,2.49v.34a4.87,4.87,0,0,0,.61,2.78,2.26,2.26,0,0,0,2,.86,2,2,0,0,0,1.79-.95,4.89,4.89,0,0,0,.63-2.71,4.78,4.78,0,0,0-.62-2.68A2.09,2.09,0,0,0,538.08,129.14Z"/><path class="cls-5" d="M550.2,138.22a3.67,3.67,0,0,1-3.1-1.44H547c.09.89.14,1.43.14,1.62v4.32h-2.24V127.5h1.81c.05.2.15.66.31,1.41h.12a3.49,3.49,0,0,1,3.14-1.6,3.64,3.64,0,0,1,3.07,1.43,6.46,6.46,0,0,1,1.1,4,6.39,6.39,0,0,1-1.12,4A3.66,3.66,0,0,1,550.2,138.22Zm-.54-9.08a2.33,2.33,0,0,0-1.95.78,4,4,0,0,0-.61,2.49v.34a4.87,4.87,0,0,0,.61,2.78,2.25,2.25,0,0,0,2,.86,2,2,0,0,0,1.79-.95,4.89,4.89,0,0,0,.63-2.71,4.69,4.69,0,0,0-.63-2.68A2.06,2.06,0,0,0,549.66,129.14Z"/><path class="cls-5" d="M558.69,138h-2.24V123.21h2.24Z"/><path class="cls-5" d="M561.08,124.71a1.26,1.26,0,0,1,.33-.93,1.3,1.3,0,0,1,.94-.32,1.29,1.29,0,0,1,.92.32,1.25,1.25,0,0,1,.32.93,1.21,1.21,0,0,1-.32.9,1.25,1.25,0,0,1-.92.33,1.27,1.27,0,0,1-.94-.33A1.22,1.22,0,0,1,561.08,124.71ZM563.45,138h-2.24V127.5h2.24Z"/><path class="cls-5" d="M570.26,138.22a4.61,4.61,0,0,1-3.63-1.39,7.05,7.05,0,0,1,0-8.09,4.81,4.81,0,0,1,3.76-1.43,6.94,6.94,0,0,1,3,.62l-.67,1.8a6.81,6.81,0,0,0-2.35-.56q-2.73,0-2.73,3.63a4.41,4.41,0,0,0,.68,2.67,2.37,2.37,0,0,0,2,.89,5.64,5.64,0,0,0,2.82-.75v2a4.43,4.43,0,0,1-1.28.5A7.74,7.74,0,0,1,570.26,138.22Z"/><path class="cls-5" d="M581.8,138l-.45-1.46h-.07a4.4,4.4,0,0,1-1.54,1.31,4.86,4.86,0,0,1-2,.34,3.34,3.34,0,0,1-2.42-.84,3.11,3.11,0,0,1-.87-2.37,2.77,2.77,0,0,1,1.21-2.45,6.86,6.86,0,0,1,3.68-.91l1.82-.06V131a2.17,2.17,0,0,0-.47-1.51,1.94,1.94,0,0,0-1.46-.5,5.09,5.09,0,0,0-1.56.24,12.7,12.7,0,0,0-1.42.56l-.73-1.6a7.91,7.91,0,0,1,1.88-.68,9,9,0,0,1,1.92-.23,4.61,4.61,0,0,1,3,.87,3.46,3.46,0,0,1,1,2.76V138Zm-3.33-1.52a2.77,2.77,0,0,0,1.95-.68,2.49,2.49,0,0,0,.74-1.91V133l-1.35.06a4.57,4.57,0,0,0-2.3.53,1.59,1.59,0,0,0-.72,1.44,1.39,1.39,0,0,0,.42,1.09A1.79,1.79,0,0,0,578.47,136.51Z"/><path class="cls-5" d="M589.8,136.41a5.54,5.54,0,0,0,1.64-.25v1.68a4.32,4.32,0,0,1-1,.27,6.09,6.09,0,0,1-1.22.11c-2.12,0-3.18-1.11-3.18-3.35v-5.68h-1.44v-1l1.55-.82.76-2.23h1.38v2.35h3v1.69h-3v5.64a1.6,1.6,0,0,0,.41,1.2A1.5,1.5,0,0,0,589.8,136.41Z"/><path class="cls-5" d="M592.76,124.71a1.26,1.26,0,0,1,.33-.93,1.3,1.3,0,0,1,.93-.32,1.13,1.13,0,0,1,1.25,1.25,1.14,1.14,0,0,1-1.25,1.23,1.26,1.26,0,0,1-.93-.33A1.22,1.22,0,0,1,592.76,124.71ZM595.13,138h-2.24V127.5h2.24Z"/><path class="cls-5" d="M607,132.75a5.73,5.73,0,0,1-1.32,4,4.73,4.73,0,0,1-3.69,1.45,5.11,5.11,0,0,1-2.61-.66,4.51,4.51,0,0,1-1.74-1.92,6.47,6.47,0,0,1-.61-2.89,5.69,5.69,0,0,1,1.32-4,4.75,4.75,0,0,1,3.7-1.44,4.65,4.65,0,0,1,3.62,1.47A5.67,5.67,0,0,1,607,132.75Zm-7.66,0c0,2.43.89,3.64,2.69,3.64s2.67-1.21,2.67-3.64-.9-3.61-2.69-3.61a2.28,2.28,0,0,0-2,.93A4.76,4.76,0,0,0,599.37,132.75Z"/><path class="cls-5" d="M618.26,138H616v-6.47a2.81,2.81,0,0,0-.49-1.82,1.91,1.91,0,0,0-1.56-.6,2.48,2.48,0,0,0-2.07.83,4.62,4.62,0,0,0-.66,2.81V138H609V127.5h1.75l.32,1.38h.11a3.13,3.13,0,0,1,1.35-1.16,4.48,4.48,0,0,1,2-.41c2.52,0,3.79,1.28,3.79,3.85Z"/><path class="cls-5" d="M562.63,170.14a3.22,3.22,0,0,1-.77,2.2,3.93,3.93,0,0,1-2.18,1.19v.07a4.2,4.2,0,0,1,2.52,1.05,3,3,0,0,1,.84,2.21,3.69,3.69,0,0,1-1.42,3.1,6.5,6.5,0,0,1-4,1.09,9.18,9.18,0,0,1-3.91-.75v-2a9.15,9.15,0,0,0,1.88.68,8.65,8.65,0,0,0,1.91.23,4,4,0,0,0,2.41-.6,2.15,2.15,0,0,0,.8-1.85,1.76,1.76,0,0,0-.88-1.64,5.64,5.64,0,0,0-2.78-.53H555.8v-1.81H557q3.33,0,3.33-2.31a1.68,1.68,0,0,0-.58-1.38,2.64,2.64,0,0,0-1.71-.49,5.2,5.2,0,0,0-1.53.23,7.14,7.14,0,0,0-1.73.87l-1.1-1.56a7.31,7.31,0,0,1,4.45-1.41,5.34,5.34,0,0,1,3.29.9A3,3,0,0,1,562.63,170.14Z"/><path class="cls-5" d="M570.46,170.14a5.64,5.64,0,0,1,1.11.09l-.22,2.09a4,4,0,0,0-1-.12,2.87,2.87,0,0,0-2.17.88,3.16,3.16,0,0,0-.84,2.28v5.5h-2.23V170.33h1.75l.29,1.86h.12a4.2,4.2,0,0,1,1.36-1.5A3.26,3.26,0,0,1,570.46,170.14Z"/><path class="cls-5" d="M576.47,181.05a3.65,3.65,0,0,1-3.08-1.43,7.83,7.83,0,0,1,0-8,3.7,3.7,0,0,1,3.1-1.44,3.64,3.64,0,0,1,3.16,1.53h.11a12.92,12.92,0,0,1-.16-1.79V166h2.25v14.82h-1.75l-.39-1.38h-.11A3.58,3.58,0,0,1,576.47,181.05Zm.6-1.81a2.46,2.46,0,0,0,2-.77,4.14,4.14,0,0,0,.65-2.52v-.32a4.75,4.75,0,0,0-.65-2.83,2.42,2.42,0,0,0-2-.83,2.05,2.05,0,0,0-1.82.95,4.88,4.88,0,0,0-.64,2.73,4.79,4.79,0,0,0,.62,2.67A2.07,2.07,0,0,0,577.07,179.24Z"/><path class="cls-5" d="M518,197.17a7,7,0,0,1-1.91,5.28,7.73,7.73,0,0,1-5.52,1.82h-3.89V190.34H511a7.12,7.12,0,0,1,5.17,1.79A6.72,6.72,0,0,1,518,197.17Zm-2.4.08q0-5-4.68-5h-2v10.1h1.62Q515.59,202.35,515.6,197.25Z"/><path class="cls-5" d="M524.79,204.46A5.1,5.1,0,0,1,521,203a5.44,5.44,0,0,1-1.39-3.95,6,6,0,0,1,1.29-4.06,4.45,4.45,0,0,1,3.53-1.48,4.38,4.38,0,0,1,3.3,1.27,4.89,4.89,0,0,1,1.21,3.49v1.21h-7a3.38,3.38,0,0,0,.83,2.35,2.88,2.88,0,0,0,2.2.83,7.85,7.85,0,0,0,1.73-.18,9.25,9.25,0,0,0,1.73-.58v1.82a7,7,0,0,1-1.65.55A10.06,10.06,0,0,1,524.79,204.46Zm-.41-9.22a2.26,2.26,0,0,0-1.71.68,3.17,3.17,0,0,0-.76,2h4.78a3,3,0,0,0-.63-2A2.16,2.16,0,0,0,524.38,195.24Z"/><path class="cls-5" d="M536.23,204.46a3.69,3.69,0,0,1-3.11-1.44H533c.09.89.13,1.43.13,1.62V209h-2.24V193.74h1.81c0,.19.16.66.32,1.4h.11a3.53,3.53,0,0,1,3.14-1.6,3.65,3.65,0,0,1,3.07,1.43,7.8,7.8,0,0,1,0,8A3.69,3.69,0,0,1,536.23,204.46Zm-.55-9.09a2.33,2.33,0,0,0-1.95.78,4.09,4.09,0,0,0-.61,2.5V199a4.91,4.91,0,0,0,.61,2.79,2.28,2.28,0,0,0,2,.86,2,2,0,0,0,1.79-.95,4.93,4.93,0,0,0,.63-2.72,4.8,4.8,0,0,0-.62-2.68A2.11,2.11,0,0,0,535.68,195.37Z"/><path class="cls-5" d="M547.15,204.46A5.14,5.14,0,0,1,543.3,203a5.48,5.48,0,0,1-1.38-3.95,6,6,0,0,1,1.29-4.06,4.44,4.44,0,0,1,3.53-1.48,4.34,4.34,0,0,1,3.29,1.27,4.84,4.84,0,0,1,1.21,3.49v1.21h-7a3.47,3.47,0,0,0,.83,2.35,2.89,2.89,0,0,0,2.2.83,8,8,0,0,0,1.74-.18,9.5,9.5,0,0,0,1.73-.58v1.82a7,7,0,0,1-1.66.55A10,10,0,0,1,547.15,204.46Zm-.41-9.22a2.26,2.26,0,0,0-1.71.68,3.18,3.18,0,0,0-.77,2H549a3,3,0,0,0-.62-2A2.16,2.16,0,0,0,546.74,195.24Z"/><path class="cls-5" d="M562.51,204.27h-2.25v-6.48a2.89,2.89,0,0,0-.49-1.82,1.91,1.91,0,0,0-1.56-.6,2.48,2.48,0,0,0-2.08.84,4.7,4.7,0,0,0-.65,2.81v5.25h-2.24V193.74H555l.32,1.38h.11a3.16,3.16,0,0,1,1.35-1.17,4.6,4.6,0,0,1,2-.41c2.52,0,3.79,1.29,3.79,3.86Z"/><path class="cls-5" d="M568.61,204.46a3.69,3.69,0,0,1-3.08-1.43,7.83,7.83,0,0,1,0-8,3.71,3.71,0,0,1,3.1-1.45,3.64,3.64,0,0,1,3.16,1.54h.11a14.87,14.87,0,0,1-.16-1.79v-3.84H574v14.82h-1.75l-.39-1.38h-.11A3.58,3.58,0,0,1,568.61,204.46Zm.6-1.81a2.43,2.43,0,0,0,2-.78,4.1,4.1,0,0,0,.65-2.52V199a4.73,4.73,0,0,0-.65-2.83,2.4,2.4,0,0,0-2-.84,2.06,2.06,0,0,0-1.82,1,5,5,0,0,0-.64,2.73,4.79,4.79,0,0,0,.62,2.67A2.09,2.09,0,0,0,569.21,202.65Z"/><path class="cls-5" d="M581.2,204.46a5.11,5.11,0,0,1-3.84-1.43,5.48,5.48,0,0,1-1.39-3.95,6,6,0,0,1,1.29-4.06,4.47,4.47,0,0,1,3.53-1.48,4.38,4.38,0,0,1,3.3,1.27,4.84,4.84,0,0,1,1.21,3.49v1.21h-7a3.42,3.42,0,0,0,.83,2.35,2.88,2.88,0,0,0,2.2.83,8,8,0,0,0,1.74-.18,9.76,9.76,0,0,0,1.73-.58v1.82a7,7,0,0,1-1.66.55A10.06,10.06,0,0,1,581.2,204.46Zm-.41-9.22a2.26,2.26,0,0,0-1.71.68,3.23,3.23,0,0,0-.76,2h4.78a2.9,2.9,0,0,0-.63-2A2.14,2.14,0,0,0,580.79,195.24Z"/><path class="cls-5" d="M596.56,204.27h-2.25v-6.48a2.82,2.82,0,0,0-.49-1.82,1.87,1.87,0,0,0-1.55-.6,2.48,2.48,0,0,0-2.08.84,4.62,4.62,0,0,0-.66,2.81v5.25h-2.24V193.74h1.76l.31,1.38h.12a3,3,0,0,1,1.35-1.17,4.55,4.55,0,0,1,1.94-.41q3.79,0,3.79,3.86Z"/><path class="cls-5" d="M603.33,204.46a4.62,4.62,0,0,1-3.64-1.4,5.81,5.81,0,0,1-1.24-4,5.87,5.87,0,0,1,1.3-4.09,4.84,4.84,0,0,1,3.76-1.43,7.09,7.09,0,0,1,3,.62l-.68,1.8a6.9,6.9,0,0,0-2.34-.55q-2.73,0-2.73,3.63a4.29,4.29,0,0,0,.68,2.66,2.33,2.33,0,0,0,2,.89,5.67,5.67,0,0,0,2.83-.74v2a4.29,4.29,0,0,1-1.28.51A7.74,7.74,0,0,1,603.33,204.46Z"/><path class="cls-5" d="M607.91,190.94a1.23,1.23,0,0,1,.33-.92,1.25,1.25,0,0,1,.93-.32,1.13,1.13,0,0,1,1.25,1.24,1.19,1.19,0,0,1-.33.9,1.23,1.23,0,0,1-.92.33,1.26,1.26,0,0,1-.93-.33A1.19,1.19,0,0,1,607.91,190.94Zm2.37,13.33H608V193.74h2.24Z"/><path class="cls-5" d="M617.44,204.46A5.1,5.1,0,0,1,613.6,203a5.44,5.44,0,0,1-1.39-3.95A6,6,0,0,1,613.5,195a4.44,4.44,0,0,1,3.53-1.48,4.38,4.38,0,0,1,3.3,1.27,4.88,4.88,0,0,1,1.2,3.49v1.21h-7a3.42,3.42,0,0,0,.82,2.35,2.89,2.89,0,0,0,2.2.83,7.88,7.88,0,0,0,1.74-.18,9.25,9.25,0,0,0,1.73-.58v1.82a7,7,0,0,1-1.66.55A9.88,9.88,0,0,1,617.44,204.46Zm-.41-9.22a2.26,2.26,0,0,0-1.71.68,3.24,3.24,0,0,0-.77,2h4.78a3,3,0,0,0-.62-2A2.16,2.16,0,0,0,617,195.24Z"/><path class="cls-5" d="M630.67,201.27a2.76,2.76,0,0,1-1.13,2.37,5.37,5.37,0,0,1-3.22.82,7.54,7.54,0,0,1-3.38-.64v-1.93a8.34,8.34,0,0,0,3.46.86c1.38,0,2.07-.42,2.07-1.25a1,1,0,0,0-.23-.67,2.74,2.74,0,0,0-.75-.55,13.08,13.08,0,0,0-1.46-.65,6.77,6.77,0,0,1-2.46-1.41,2.61,2.61,0,0,1-.65-1.83,2.42,2.42,0,0,1,1.09-2.1,5.18,5.18,0,0,1,3-.75,8.47,8.47,0,0,1,3.52.76l-.73,1.68a7.75,7.75,0,0,0-2.86-.7c-1.19,0-1.78.33-1.78,1a1,1,0,0,0,.47.84,10.56,10.56,0,0,0,2,.94,9.63,9.63,0,0,1,1.9.92,2.74,2.74,0,0,1,.87,1A2.81,2.81,0,0,1,630.67,201.27Z"/></svg>